<svg xmlns="http://www.w3.org/2000/svg" width="16.57" height="17.641" viewBox="0 0 16.57 17.641">
  <g id="الخيارات-10" transform="translate(0 0.07)">
    <g id="Group_115" data-name="Group 115">
      <path id="Path_120" data-name="Path 120" d="M7.8,13.1c-.4,0-.7-.2-.7-.5v-5c0-.3.3-.5.7-.5s.7.2.7.5v5C8.6,12.9,8.2,13.1,7.8,13.1Z" fill="#c09b65"/>
      <path id="Path_121" data-name="Path 121" d="M7.8,3.7c.2,0,.3,0,.4.1s.3.1.4.2a1.38,1.38,0,0,1,.3.4.9.9,0,0,1,.1.5.6.6,0,0,1-.1.4c-.1.1-.1.3-.3.4s-.2.2-.3.2a4.331,4.331,0,0,1-.5.1.6.6,0,0,1-.4-.1c-.1-.1-.3-.1-.4-.2a.758.758,0,0,1-.2-.4.6.6,0,0,1-.1-.4c0-.2,0-.3.1-.4s.1-.4.2-.5a1.38,1.38,0,0,1,.4-.3C7.6,3.6,7.7,3.7,7.8,3.7Z" fill="#c09b65"/>
      <path id="Path_122" data-name="Path 122" d="M3.4,1.1a8.782,8.782,0,1,1-3.2,12,.693.693,0,0,1,.3-1,.693.693,0,0,1,1,.3A7.256,7.256,0,1,0,4.2,2.5a.693.693,0,0,1-1-.3A.781.781,0,0,1,3.4,1.1Z" fill="#c09b65"/>
    </g>
    <path id="Path_123" data-name="Path 123" d="M7.7,13.2c-.4,0-.7-.2-.7-.5v-5c0-.3.3-.5.7-.5s.7.2.7.5v5C8.4,13,8.1,13.2,7.7,13.2Z" fill="#c09b65"/>
    <path id="Path_124" data-name="Path 124" d="M3.3,1.2a8.782,8.782,0,1,1-3.2,12,.693.693,0,0,1,.3-1,.693.693,0,0,1,1,.3A7.256,7.256,0,1,0,4.1,2.6.949.949,0,0,1,3,2.2.81.81,0,0,1,3.3,1.2Z" fill="#c09b65"/>
  </g>
</svg>
