<svg xmlns="http://www.w3.org/2000/svg" width="21.6" height="20.093" viewBox="0 0 21.6 20.093">
  <g id="الخيارات-06" transform="translate(0.05 -0.041)">
    <g id="Group_92" data-name="Group 92">
      <path id="Path_93" data-name="Path 93" d="M20.8,9.1V2.8a2,2,0,0,0-2.2-2h-.1a18.14,18.14,0,0,0-7.1,2.4l-.2.1a1.083,1.083,0,0,1-1.1,0L10,3.1A17.983,17.983,0,0,0,2.9.8a2,2,0,0,0-2.2,2V14.9a2.047,2.047,0,0,0,1.7,2h.3a26.741,26.741,0,0,1,7.4,2.4h0a1.7,1.7,0,0,0,1,0,24.56,24.56,0,0,1,7.5-2.5h.3a1.96,1.96,0,0,0,1.7-2V13.1" fill="none" stroke="#c79d52" stroke-linecap="round" stroke-linejoin="round" stroke-width="1.5"/>
      <line id="Line_13" data-name="Line 13" y2="15" transform="translate(10.8 3.6)" fill="none" stroke="#c79d52" stroke-linecap="round" stroke-linejoin="round" stroke-width="1.5"/>
      <line id="Line_14" data-name="Line 14" x1="2.3" transform="translate(4.2 6.6)" fill="none" stroke="#c79d52" stroke-linecap="round" stroke-linejoin="round" stroke-width="1.5"/>
      <line id="Line_15" data-name="Line 15" x1="3" transform="translate(4.2 9.6)" fill="none" stroke="#c79d52" stroke-linecap="round" stroke-linejoin="round" stroke-width="1.5"/>
    </g>
  </g>
</svg>
