<svg xmlns="http://www.w3.org/2000/svg" width="22.55" height="22.35" viewBox="0 0 22.55 22.35">
  <g id="اعدادات_4" data-name="اعدادات 4" transform="translate(0.075 -0.025)">
    <path id="Path_24" data-name="Path 24" d="M11.2.4A11.623,11.623,0,0,0,7,1.2,11.809,11.809,0,0,0,3.5,3.5,10.654,10.654,0,0,0,1.2,7a9.9,9.9,0,0,0-.9,4.2,12.7,12.7,0,0,0,.5,3.4,14.02,14.02,0,0,0,1.5,3,8.392,8.392,0,0,0,2.3,2.3,10.805,10.805,0,0,0,3,1.6,10.817,10.817,0,0,0,3.6.5,9.9,9.9,0,0,0,4.2-.9,11.809,11.809,0,0,0,3.5-2.3,10.654,10.654,0,0,0,2.3-3.5,9.9,9.9,0,0,0,.9-4.2,10.679,10.679,0,0,0-.3-2.5A15.546,15.546,0,0,0,21,6.3a13.735,13.735,0,0,0-1.3-2A13.65,13.65,0,0,0,18,2.6a13.735,13.735,0,0,0-2-1.3A8.955,8.955,0,0,0,13.7.5C12.9.5,12,.4,11.2.4ZM15,20.1a9.954,9.954,0,0,1-3.8.8,9.954,9.954,0,0,1-3.8-.8A9.451,9.451,0,0,1,4.3,18a9.038,9.038,0,0,1-2.1-3,9.954,9.954,0,0,1-.8-3.8,9.954,9.954,0,0,1,.8-3.8A9.451,9.451,0,0,1,4.3,4.3,9.451,9.451,0,0,1,7.4,2.2a9.954,9.954,0,0,1,3.8-.8,9.954,9.954,0,0,1,3.8.8,9.451,9.451,0,0,1,3.1,2.1,11.292,11.292,0,0,1,2.1,3.1,9.954,9.954,0,0,1,.8,3.8,9.954,9.954,0,0,1-.8,3.8,9.451,9.451,0,0,1-2.1,3.1,11.013,11.013,0,0,1-3.1,2Zm-.2-9.4-5-2.8a.631.631,0,0,0-.7-.1.6.6,0,0,0-.3.6V14a.6.6,0,0,0,.3.6.631.631,0,0,0,.7-.1l5-2.8a.513.513,0,0,0,0-1Z" fill="#c79d52" stroke="#c79d52" stroke-miterlimit="10" stroke-width="0.75"/>
  </g>
</svg>
