<svg xmlns="http://www.w3.org/2000/svg" width="20.107" height="20.411" viewBox="0 0 20.107 20.411">
  <g id="الخيارات-09" transform="translate(-0.093 0.003)">
    <g id="Group_110" data-name="Group 110">
      <path id="Path_115" data-name="Path 115" d="M20.2,10.3a8.217,8.217,0,0,1-1.8,5.2,1.163,1.163,0,0,0-.2,1A2.873,2.873,0,0,1,16.9,20a2.909,2.909,0,0,1-3.7-.6,3.015,3.015,0,0,1-.2-3.8,2.939,2.939,0,0,1,3.7-1c.5.2.6.1.9-.3a7.426,7.426,0,0,0,.7-7.2c-.2-.4.4-1.4.8-1.4.2,0,.3.2.3.4A12.5,12.5,0,0,1,20.2,10.3Z" fill="#c09b65"/>
      <path id="Path_116" data-name="Path 116" d="M3.8,5.6a8.767,8.767,0,0,1,8.5-4.2c.4,0,.6,0,.8-.3A2.948,2.948,0,0,1,16.9.4a3.041,3.041,0,0,1,1.4,3.5,3.088,3.088,0,0,1-3,2.2,2.843,2.843,0,0,1-2.8-2.7c-.1-.5-.2-.6-.6-.6a7.218,7.218,0,0,0-6,2.5C4.9,6.2,4.9,6.2,3.8,5.6Z" fill="#c09b65"/>
      <path id="Path_117" data-name="Path 117" d="M11,19a8.615,8.615,0,0,1-7.7-5.1,1.22,1.22,0,0,0-.9-.8,2.91,2.91,0,0,1-2.3-3A2.987,2.987,0,0,1,2.5,7.2,2.957,2.957,0,0,1,5.7,8.9a2.967,2.967,0,0,1-.9,3.7c-.4.3-.5.5-.2.9a7.382,7.382,0,0,0,4.9,3.9C10.6,17.6,11.1,17.9,11,19Z" fill="#c09b65"/>
    </g>
  </g>
</svg>
