<svg xmlns="http://www.w3.org/2000/svg" width="24.092" height="24.03" viewBox="0 0 24.092 24.03">
  <g id="دعوة" transform="translate(0.062)">
    <path id="Path_207" data-name="Path 207" d="M12,0a12.4,12.4,0,0,1,2.35.23A12.25,12.25,0,0,1,18.69,2a11.73,11.73,0,0,1,1.82,1.49A11.28,11.28,0,0,1,22,5.34a12.25,12.25,0,0,1,1.8,4.33,12.07,12.07,0,0,1,0,4.69A12.25,12.25,0,0,1,22,18.69a11.28,11.28,0,0,1-1.49,1.82A11.73,11.73,0,0,1,18.69,22a12.25,12.25,0,0,1-4.33,1.8,12.07,12.07,0,0,1-4.69,0A12.25,12.25,0,0,1,5.34,22a11.28,11.28,0,0,1-1.82-1.49A11.9,11.9,0,0,1,2,18.69,13.37,13.37,0,0,1,.91,16.61a11.9,11.9,0,0,1-.68-2.25,12.07,12.07,0,0,1,0-4.69A11.9,11.9,0,0,1,.91,7.42,13.37,13.37,0,0,1,2,5.34,11.9,11.9,0,0,1,3.5,3.52,11.28,11.28,0,0,1,5.34,2,12.173,12.173,0,0,1,12,0Z" fill="#fff"/>
    <path id="Path_208" data-name="Path 208" d="M7.64,20.29a.57.57,0,0,0-.56.57V23a10.839,10.839,0,0,0,1.12.44V20.86a.57.57,0,0,0-.56-.57Z" fill="#6e5835"/>
    <rect id="Rectangle_1" data-name="Rectangle 1" width="7.4" height="0.52" transform="translate(8.31 11.42)" fill="#6e5835"/>
    <path id="Path_209" data-name="Path 209" d="M13.86,21.4a4.84,4.84,0,0,0-1-1.23,5.57,5.57,0,0,1-.88-1,5.92,5.92,0,0,1-.87,1,4.3,4.3,0,0,0-1,1.33A3,3,0,0,0,10,22.62v1.23a11.82,11.82,0,0,0,4.11,0V22.62a2.83,2.83,0,0,0-.25-1.22Z" fill="#6e5835"/>
    <path id="Path_210" data-name="Path 210" d="M12.08,8.11a3,3,0,0,0-3,2.73h6a3,3,0,0,0-3-2.73Z" fill="#6e5835"/>
    <path id="Path_211" data-name="Path 211" d="M3.52,9.94H5.59V9.41H3.52Z" fill="#6e5835"/>
    <rect id="Rectangle_2" data-name="Rectangle 2" width="12.57" height="0.49" transform="translate(5.73 16.67)" fill="#6e5835"/>
    <path id="Path_212" data-name="Path 212" d="M5,7.77A1.25,1.25,0,0,0,4.76,7l-.21-.27L4.35,7a1.25,1.25,0,0,0-.25.75V8.84H5Z" fill="#6e5835"/>
    <path id="Path_213" data-name="Path 213" d="M19.93,7.77A1.25,1.25,0,0,0,19.68,7l-.2-.27L19.27,7a1.25,1.25,0,0,0-.25.75h0V8.84h.91Z" fill="#6e5835"/>
    <path id="Path_214" data-name="Path 214" d="M5.16,17.41v-6.9H4v9.74a.29.29,0,1,1-.58,0V10.49A.54.54,0,0,1,3,10V9.39a.55.55,0,0,1,.54-.55h0V7.77a1.82,1.82,0,0,1,.37-1.1l.38-.49V5.43a.28.28,0,0,1,.28-.29.29.29,0,0,1,.29.29v.75l.37.49a1.82,1.82,0,0,1,.37,1.1V8.84h0a.55.55,0,0,1,.55.55V10a.55.55,0,0,1-.43.53V16.1H8.15V12.51a.45.45,0,0,1-.41-.44v-.79a.44.44,0,0,1,.44-.44H8.5a3.6,3.6,0,0,1,3.3-3.29V7.14a1.07,1.07,0,0,1,0-2,.29.29,0,0,1,.38.15.28.28,0,0,1-.16.37.51.51,0,0,0-.3.46.49.49,0,0,0,.5.49.52.52,0,0,0,.35-.14.283.283,0,0,1,.4.4,1,1,0,0,1-.58.3v.35a3.6,3.6,0,0,1,3.29,3.29h.19a.44.44,0,0,1,.44.44v.79a.43.43,0,0,1-.37.43v1.17a.29.29,0,0,1-.29.29.28.28,0,0,1-.28-.29V12.51H8.72V16.1h1.76v-.72a2,2,0,0,1,.12-.8,1.59,1.59,0,0,1,.15-.29,4,4,0,0,1,.53-.63,2,2,0,0,0,.51-.67.33.33,0,0,1,.62,0,2.29,2.29,0,0,0,.51.67,3,3,0,0,1,.69.92,2.21,2.21,0,0,1,.12.8v.72h1.62V15a.27.27,0,0,1,.28-.28.28.28,0,0,1,.29.28v1.1H18.3V10.49a.54.54,0,0,1-.43-.53V9.39a.55.55,0,0,1,.55-.55h0V7.77a1.82,1.82,0,0,1,.37-1.1l.37-.49V5.43a.29.29,0,1,1,.57,0v.75l.38.49a1.88,1.88,0,0,1,.36,1.1V8.84h0a.55.55,0,0,1,.54.55V10a.54.54,0,0,1-.43.53V20.4a12,12,0,1,0-15.5,1.52V17.45S5.16,17.42,5.16,17.41Z" fill="#6e5835"/>
    <path id="Path_215" data-name="Path 215" d="M18.87,10.51V21.88a11.33,11.33,0,0,0,1.21-1V10.51Z" fill="#6e5835"/>
    <rect id="Rectangle_3" data-name="Rectangle 3" width="2.07" height="0.52" transform="translate(18.44 9.41)" fill="#6e5835"/>
    <path id="Path_216" data-name="Path 216" d="M5.73,17.74v4.52c.25.15.51.3.77.43V20.86a1.14,1.14,0,1,1,2.27,0v2.73l.61.15V22.62a3.38,3.38,0,0,1,.23-1.37,5,5,0,0,1,1.12-1.49,3.62,3.62,0,0,0,.94-1.24.37.37,0,0,1,.34-.23.35.35,0,0,1,.34.23,3.74,3.74,0,0,0,.94,1.24,5.55,5.55,0,0,1,1.06,1.35,3.24,3.24,0,0,1,.29,1.51v1.12l.54-.13V20.86a1.13,1.13,0,0,1,1.13-1.14h.08a1.14,1.14,0,0,1,1.13,1.14V22.7c.27-.14.53-.29.78-.44V17.74Z" fill="#6e5835"/>
    <path id="Path_217" data-name="Path 217" d="M13.16,15.38a1.46,1.46,0,0,0-.09-.59c-.19-.49-.67-.78-1-1.19a10.68,10.68,0,0,0-.92,1.08,1.39,1.39,0,0,0-.13.7v.72h2.11Z" fill="#6e5835"/>
    <path id="Path_218" data-name="Path 218" d="M16.39,20.29h-.08a.57.57,0,0,0-.56.57v2.58A12.44,12.44,0,0,0,17,23V20.86a.57.57,0,0,0-.61-.57Z" fill="#6e5835"/>
  </g>
</svg>
