<svg xmlns="http://www.w3.org/2000/svg" width="30" height="30" viewBox="0 0 30 30">
  <g id="الدرس_-08" data-name="الدرس -08" transform="translate(0)">
    <path id="Path_139" data-name="Path 139" d="M15,0a15.24,15.24,0,0,1,2.93.29,14.67,14.67,0,0,1,2.81.85,15,15,0,0,1,2.59,1.39,15.69,15.69,0,0,1,2.28,1.86,15.69,15.69,0,0,1,1.86,2.28,15,15,0,0,1,1.39,2.59,14.67,14.67,0,0,1,.85,2.81,14.95,14.95,0,0,1,0,5.86,14.67,14.67,0,0,1-.85,2.81,15,15,0,0,1-1.39,2.59,15.69,15.69,0,0,1-1.86,2.28,15.69,15.69,0,0,1-2.28,1.86,15,15,0,0,1-2.59,1.39,14.67,14.67,0,0,1-2.81.85,14.95,14.95,0,0,1-5.86,0,14.67,14.67,0,0,1-2.81-.85,15,15,0,0,1-2.59-1.39,15.69,15.69,0,0,1-2.28-1.86,15.69,15.69,0,0,1-1.86-2.28,15,15,0,0,1-1.39-2.59,14.67,14.67,0,0,1-.85-2.81,14.95,14.95,0,0,1,0-5.86,14.67,14.67,0,0,1,.85-2.81A15,15,0,0,1,2.53,6.67,15.69,15.69,0,0,1,4.39,4.39,15.69,15.69,0,0,1,6.67,2.53,15,15,0,0,1,9.26,1.14,14.67,14.67,0,0,1,12.07.29,15.24,15.24,0,0,1,15,0Z" fill="#6e5835"/>
    <path id="Path_140" data-name="Path 140" d="M20.03,13.9l-5.26,5.26L9.51,13.9" fill="none" stroke="#fff" stroke-linecap="round" stroke-miterlimit="10" stroke-width="2"/>
    <line id="Line_20" data-name="Line 20" y1="13.35" transform="translate(14.77 5.81)" fill="none" stroke="#fff" stroke-linecap="round" stroke-miterlimit="10" stroke-width="2"/>
    <line id="Line_21" data-name="Line 21" x2="12.84" transform="translate(8.42 22.27)" fill="none" stroke="#fff" stroke-linecap="round" stroke-miterlimit="10" stroke-width="2"/>
  </g>
</svg>
