<svg id="تابعنا_على-07" data-name="تابعنا على-07" xmlns="http://www.w3.org/2000/svg" width="27.56" height="27.56" viewBox="0 0 27.56 27.56">
  <path id="Path_318" data-name="Path 318" d="M11.65,13.84v7.91a.22.22,0,0,0,.21.21H14.8a.21.21,0,0,0,.2-.21v-8h2.13a.22.22,0,0,0,.21-.19l.2-2.42a.21.21,0,0,0-.2-.23H15V9.16a.73.73,0,0,1,.73-.72h1.64a.21.21,0,0,0,.21-.21V5.81a.21.21,0,0,0-.21-.21H14.6a3,3,0,0,0-2.95,3v2.33H10.19a.21.21,0,0,0-.21.21v2.42a.21.21,0,0,0,.21.21h1.46Z" fill="#77590e" fill-rule="evenodd"/>
  <rect id="Rectangle_12" data-name="Rectangle 12" width="26.56" height="26.56" rx="3.44" transform="translate(0.5 0.5)" fill="none" stroke="#c69c52" stroke-miterlimit="10" stroke-width="1"/>
</svg>
