<svg id="الاسرة_2" data-name="الاسرة 2" xmlns="http://www.w3.org/2000/svg" width="16" height="16" viewBox="0 0 16 16">
  <path id="Path_326" data-name="Path 326" d="M8,0A9.971,9.971,0,0,1,9.6.2a8.8,8.8,0,0,1,1.5.5,9.143,9.143,0,0,1,1.4.7,10.592,10.592,0,0,1,1.2,1,10.592,10.592,0,0,1,1,1.2A6.109,6.109,0,0,1,15.4,5a8.8,8.8,0,0,1,.5,1.5A7.569,7.569,0,0,1,16,8a9.971,9.971,0,0,1-.2,1.6,6.606,6.606,0,0,1-.5,1.5,9.143,9.143,0,0,1-.7,1.4,5.8,5.8,0,0,1-1,1.2,10.592,10.592,0,0,1-1.2,1,6.109,6.109,0,0,1-1.4.7,8.8,8.8,0,0,1-1.5.5A7.569,7.569,0,0,1,8,16a9.971,9.971,0,0,1-1.6-.2,6.606,6.606,0,0,1-1.5-.5,9.143,9.143,0,0,1-1.4-.7,10.592,10.592,0,0,1-1.2-1,10.592,10.592,0,0,1-1-1.2A6.109,6.109,0,0,1,.6,11,8.8,8.8,0,0,1,.1,9.5,7.569,7.569,0,0,1,0,8,9.971,9.971,0,0,1,.2,6.4,6.606,6.606,0,0,1,.7,4.9c.2-.5.4-.9.6-1.3a5.3,5.3,0,0,1,1-1.2,10.592,10.592,0,0,1,1.2-1C4,1.1,4.5.8,4.9.6A8.8,8.8,0,0,1,6.4.1C7,.1,7.5,0,8,0Z" fill="#6e5835"/>
  <path id="Path_327" data-name="Path 327" d="M14.2,6,8,1.5a.3.3,0,0,0-.4,0L1.5,6c-.2.1-.2.3-.1.5s.3.2.5.1l6-4.4,6,4.4c.1,0,.1.1.2.1a.367.367,0,0,0,.3-.1A.845.845,0,0,0,14.2,6Z" fill="#fff"/>
  <path id="Path_328" data-name="Path 328" d="M12.5,6.6a.319.319,0,0,0-.3.3v5.4H9.5V9.4A1.752,1.752,0,0,0,7.8,7.7,1.752,1.752,0,0,0,6.1,9.4v2.9H3.4V7a.319.319,0,0,0-.3-.3c-.2-.1-.3.1-.3.3v5.7a.319.319,0,0,0,.3.3H6.5a.265.265,0,0,0,.3-.3h0V9.4a1,1,0,0,1,2,0v3.3h0c0,.2.2.3.4.3h3.4a.319.319,0,0,0,.3-.3V7A.43.43,0,0,0,12.5,6.6Z" fill="#fff"/>
</svg>
