<svg xmlns="http://www.w3.org/2000/svg" width="19.1" height="21.589" viewBox="0 0 19.1 21.589">
  <g id="بنر_سفلي_7" data-name="بنر سفلي 7" transform="translate(0.75 0.75)">
    <path id="Path_235" data-name="Path 235" d="M11.9,8.7H10.1V7a.789.789,0,0,0-.8-.8c-.5,0-.6.3-.6.8V8.7H6.9a.684.684,0,0,0-.7.7.789.789,0,0,0,.8.8H8.8V12a.789.789,0,0,0,.8.8.736.736,0,0,0,.8-.8V10.2h1.8a.789.789,0,0,0,.8-.8C13,8.9,12.3,8.7,11.9,8.7Z" transform="translate(-0.7 -0.7)" fill="#6f5936" opacity="0.4"/>
    <path id="Path_236" data-name="Path 236" d="M.8,8.8v9.9c0,1.8,1.3,2.6,2.9,1.7l4.9-2.7a2.118,2.118,0,0,1,1.9,0l4.9,2.7c1.6.9,2.9.1,2.9-1.7V4.6A3.9,3.9,0,0,0,14.4.7H4.6A3.9,3.9,0,0,0,.7,4.6" transform="translate(-0.7 -0.7)" fill="none" stroke="#6f5936" stroke-linecap="round" stroke-linejoin="round" stroke-width="1.5" opacity="0.4"/>
  </g>
</svg>
