<svg xmlns="http://www.w3.org/2000/svg" width="21.8" height="21.8" viewBox="0 0 21.8 21.8">
  <g id="اعدادات_2" data-name="اعدادات 2" transform="translate(0.05 0.05)">
    <g id="Group_15" data-name="Group 15">
      <g id="Group_13" data-name="Group 13">
        <path id="Path_6" data-name="Path 6" d="M9.3,7h.2a.875.875,0,0,1,.9.6c.6,1.5,1.2,3.1,1.8,4.6.3.6.5,1.3.8,1.9.3.7-.2,1.2-.9,1.2-.3,0-.5-.2-.7-.5-.1-.4-.3-.7-.4-1.1-.1-.2-.1-.3-.3-.3H7.8c-.2,0-.3.1-.3.2a4.179,4.179,0,0,1-.4,1c-.2.6-.6.8-1.1.6s-.6-.6-.4-1.2c.7-1.8,1.4-3.5,2.1-5.3.2-.3.3-.7.5-1,.2-.6.4-.7,1-.7Zm0,1.9c-.4,1-.7,2-1.1,2.9,0,.2,0,.2.2.2h1.9c.2,0,.2-.1.1-.3-.3-.7-.5-1.4-.8-2.1A2.389,2.389,0,0,1,9.3,8.9Z" fill="#fff"/>
        <path id="Path_7" data-name="Path 7" d="M12.7,11.4a7.6,7.6,0,0,1-.4-1.1V10c.3-.9.7-1.8,1-2.6.2-.4.3-.4.7-.4.3,0,.6,0,.7.4.5,1.2,1,2.4,1.4,3.6,0,.1,0,.1.1.2a.446.446,0,0,1-.3.6.481.481,0,0,1-.6-.2c-.1-.1-.1-.3-.2-.5-.2-.5-.1-.4-.6-.4H13.4c-.4,0-.4-.1-.5.4A.355.355,0,0,1,12.7,11.4Zm1.4-3.3h0a4.418,4.418,0,0,0-.6,1.6c0,.1,0,.1.1.1h1.2A12.2,12.2,0,0,1,14.1,8.1Z" fill="#fff"/>
      </g>
      <g id="Group_14" data-name="Group 14">
        <path id="Path_8" data-name="Path 8" d="M9.3,7h.2a.875.875,0,0,1,.9.6c.6,1.5,1.2,3.1,1.8,4.6.3.6.5,1.3.8,1.9.3.7-.2,1.2-.9,1.2-.3,0-.5-.2-.7-.5-.1-.4-.3-.7-.4-1.1-.1-.2-.1-.3-.3-.3H7.8c-.2,0-.3.1-.3.2a4.179,4.179,0,0,1-.4,1c-.2.6-.6.8-1.1.6s-.6-.6-.4-1.2c.7-1.8,1.4-3.5,2.1-5.3.2-.3.3-.7.5-1,.2-.6.4-.7,1-.7Zm0,1.9c-.4,1-.7,2-1.1,2.9,0,.2,0,.2.2.2h1.9c.2,0,.2-.1.1-.3-.3-.7-.5-1.4-.8-2.1A2.389,2.389,0,0,1,9.3,8.9Z" fill="#c79d52"/>
        <path id="Path_9" data-name="Path 9" d="M12.7,11.4a7.6,7.6,0,0,1-.4-1.1V10c.3-.9.7-1.8,1-2.6.2-.4.3-.4.7-.4.3,0,.6,0,.7.4.5,1.2,1,2.4,1.4,3.6,0,.1,0,.1.1.2a.446.446,0,0,1-.3.6.481.481,0,0,1-.6-.2c-.1-.1-.1-.3-.2-.5-.2-.5-.1-.4-.6-.4H13.4c-.4,0-.4-.1-.5.4A.355.355,0,0,1,12.7,11.4Zm1.4-3.3h0a4.418,4.418,0,0,0-.6,1.6c0,.1,0,.1.1.1h1.2A12.2,12.2,0,0,1,14.1,8.1Z" fill="#c79d52"/>
      </g>
    </g>
    <path id="Path_10" data-name="Path 10" d="M15.7,21H6A5.335,5.335,0,0,1,.7,15.7V6A5.335,5.335,0,0,1,6,.7h9.7A5.4,5.4,0,0,1,21,6v9.7A5.335,5.335,0,0,1,15.7,21Z" fill="none" stroke="#c79d52" stroke-miterlimit="10" stroke-width="1.5"/>
  </g>
</svg>
