<svg xmlns="http://www.w3.org/2000/svg" width="21.8" height="21.8" viewBox="0 0 21.8 21.8">
  <g id="اعدادات_3" data-name="اعدادات 3" transform="translate(0.05 0.05)">
    <path id="Path_15" data-name="Path 15" d="M15.7,21H6A5.335,5.335,0,0,1,.7,15.7V6A5.335,5.335,0,0,1,6,.7h9.7A5.4,5.4,0,0,1,21,6v9.7A5.335,5.335,0,0,1,15.7,21Z" fill="none" stroke="#c79d52" stroke-miterlimit="10" stroke-width="1.5"/>
    <g id="Group_23" data-name="Group 23">
      <path id="Path_16" data-name="Path 16" d="M15.1,14.3v-.9a.53.53,0,0,1,.6-.6.576.576,0,0,1,.6.6v2.4a.645.645,0,0,1-.6.6H13.4a.576.576,0,0,1-.6-.6c0-.3.3-.5.7-.6h.8c0-.2-.1-.2-.2-.3l-2-2c-.1-.1-.2-.2-.2-.3-.2-.2-.1-.5,0-.7a.605.605,0,0,1,.8-.1l.3.3,2,2C14.9,14,15,14.1,15.1,14.3Z" fill="#c79d52"/>
      <path id="Path_17" data-name="Path 17" d="M15.1,7.6a1.38,1.38,0,0,0-.4.3L12.8,9.8c-.1.1-.2.2-.3.2a.755.755,0,0,1-.8-.1.483.483,0,0,1,0-.7,1.38,1.38,0,0,0,.3-.4c.7-.6,1.3-1.2,2-1.8l.3-.3h-.8c-.4,0-.6-.2-.6-.5a.576.576,0,0,1,.6-.6h2.3a.53.53,0,0,1,.6.6V8.5a.576.576,0,0,1-.6.6.56.56,0,0,1-.5-.6V8.1C15.1,7.8,15.2,7.7,15.1,7.6Z" fill="#c79d52"/>
      <path id="Path_18" data-name="Path 18" d="M7.6,15.1h.8c.4,0,.6.2.6.5a.576.576,0,0,1-.6.6H6a.576.576,0,0,1-.6-.6V13.2a.576.576,0,0,1,.6-.6q.45,0,.6.6V14c.2,0,.2-.1.3-.2l1.9-1.9c.2.1.3-.1.4-.2a.607.607,0,0,1,.9.8l-.3.3-2,2C7.7,14.9,7.6,14.9,7.6,15.1Z" fill="#c79d52"/>
      <path id="Path_19" data-name="Path 19" d="M7.5,6.6,9,8.1l.9.9c.3.3.3.8.1.9a.642.642,0,0,1-.9-.1A14.463,14.463,0,0,1,6.9,7.7c-.1,0-.1-.1-.2-.1v.9c0,.3-.1.4-.4.5a.56.56,0,0,1-.6-.1.4.4,0,0,1-.2-.4V6.1a.53.53,0,0,1,.6-.6H8.4c.4,0,.6.2.6.5a.576.576,0,0,1-.6.6H7.5Z" fill="#c79d52"/>
    </g>
  </g>
</svg>
