<svg xmlns="http://www.w3.org/2000/svg" width="24.2" height="24.8" viewBox="0 0 24.2 24.8">
  <path id="اعدادات_6" data-name="اعدادات 6" d="M3.1.5a.472.472,0,0,0-.5.5V6.3H7.9a.5.5,0,0,0,0-1H4.6a10.755,10.755,0,0,1,7.5-3.2,10.55,10.55,0,1,1,0,21.1A10.435,10.435,0,0,1,1.6,12.7a.472.472,0,0,0-.5-.5.472.472,0,0,0-.5.5h0a11.6,11.6,0,0,0,23.2,0A11.715,11.715,0,0,0,12.1,1,11.712,11.712,0,0,0,3.7,4.7V1A.56.56,0,0,0,3.1.5Z" transform="translate(-0.1)" fill="#c79d52" stroke="#c79d52" stroke-miterlimit="10" stroke-width="1"/>
</svg>
