<svg xmlns="http://www.w3.org/2000/svg" width="32" height="25.561" viewBox="0 0 32 25.561">
  <g id="بنر_سفلي-03" data-name="بنر سفلي-03" transform="translate(0 0.161)">
    <path id="Path_231" data-name="Path 231" d="M24.8,8.7,16.7,1.2a.912.912,0,0,0-1.2,0L7.2,8.7a.631.631,0,0,0,0,.9.764.764,0,0,0,.5.2h1v8.6a1.367,1.367,0,0,0,1.4,1.4H22a1.367,1.367,0,0,0,1.4-1.4V9.8h1a.645.645,0,0,0,.6-.6A.764.764,0,0,0,24.8,8.7Z" fill="none" stroke="#705936" stroke-miterlimit="10" stroke-width="2"/>
    <line id="Line_29" data-name="Line 29" x2="30" transform="translate(1 24.4)" fill="none" stroke="#c69c52" stroke-linecap="round" stroke-width="2"/>
    <path id="Path_232" data-name="Path 232" d="M18.2,19.5a.645.645,0,0,1-.6.6H14.4a.645.645,0,0,1-.6-.6V15.9a2.2,2.2,0,0,1,4.4,0Z" fill="#705936"/>
  </g>
</svg>
