<svg xmlns="http://www.w3.org/2000/svg" width="19.991" height="20.461" viewBox="0 0 19.991 20.461">
  <g id="بنر_سفلي_8" data-name="بنر سفلي 8" transform="translate(-0.009 0.061)" opacity="0.4">
    <path id="Path_237" data-name="Path 237" d="M18.8,8.4,10.6,1.3a.912.912,0,0,0-1.2,0L1.2,8.4a.52.52,0,0,0,0,.8.764.764,0,0,0,.5.2h1V18a1.367,1.367,0,0,0,1.4,1.4H16A1.367,1.367,0,0,0,17.4,18V9.4h1a.645.645,0,0,0,.6-.6A.52.52,0,0,0,18.8,8.4Z" fill="none" stroke="#6f5936" stroke-miterlimit="10" stroke-width="2"/>
    <path id="Path_238" data-name="Path 238" d="M12.2,19.1a.645.645,0,0,1-.6.6H8.4a.645.645,0,0,1-.6-.6V15.5a2.2,2.2,0,0,1,4.4,0Z" fill="#6f5936"/>
  </g>
</svg>
