<svg id="تابعنا_على-02" data-name="تابعنا على-02" xmlns="http://www.w3.org/2000/svg" xmlns:xlink="http://www.w3.org/1999/xlink" width="27.56" height="27.56" viewBox="0 0 27.56 27.56">
  <defs>
    <clipPath id="clip-path">
      <path id="Path_314" data-name="Path 314" d="M10,4.6A6.86,6.86,0,0,0,7.71,5,4.52,4.52,0,0,0,6.07,6.1,4.66,4.66,0,0,0,5,7.74,6.67,6.67,0,0,0,4.59,10c0,1-.06,1.3,0,3.81s0,2.82.06,3.81A6.86,6.86,0,0,0,5,19.85a4.41,4.41,0,0,0,1.1,1.63,4.55,4.55,0,0,0,1.64,1.07A6.93,6.93,0,0,0,10,23c1,.05,1.3.06,3.81.05s2.82,0,3.81-.06a6.86,6.86,0,0,0,2.24-.44,4.41,4.41,0,0,0,1.63-1.06,4.64,4.64,0,0,0,1.07-1.64A6.93,6.93,0,0,0,23,17.57c.05-1,.06-1.3.05-3.81S23,10.94,23,10a6.86,6.86,0,0,0-.44-2.24A4.52,4.52,0,0,0,21.5,6.12,4.75,4.75,0,0,0,19.82,5a6.67,6.67,0,0,0-2.25-.42c-1,0-1.3-.06-3.81,0s-2.82,0-3.81.06m.11,16.71A5,5,0,0,1,8.34,21a2.76,2.76,0,0,1-1.06-.68,2.9,2.9,0,0,1-.69-1.07,5.1,5.1,0,0,1-.33-1.71c0-1,0-1.27-.06-3.74s0-2.76,0-3.73a5.39,5.39,0,0,1,.31-1.72A2.91,2.91,0,0,1,7.2,7.29,2.71,2.71,0,0,1,8.27,6.6,5.1,5.1,0,0,1,10,6.26c1,0,1.27,0,3.73-.06s2.76,0,3.74,0a5.39,5.39,0,0,1,1.72.31,2.91,2.91,0,0,1,1.06.69A2.94,2.94,0,0,1,21,8.32,4.92,4.92,0,0,1,21.29,10c.05,1,.06,1.27.07,3.73s0,2.76-.05,3.74A5,5,0,0,1,21,19.22a2.67,2.67,0,0,1-.69,1.06,2.91,2.91,0,0,1-1.06.69,4.92,4.92,0,0,1-1.71.32c-1,.05-1.27.06-3.74.07s-2.76,0-3.73-.05M17.59,8.84A1.11,1.11,0,1,0,18.7,7.73a1.11,1.11,0,0,0-1.11,1.11M9,13.79A4.75,4.75,0,1,0,10.384,10.4,4.75,4.75,0,0,0,9,13.79m1.67,0a3.07,3.07,0,1,1,.906,2.178,3.08,3.08,0,0,1-.906-2.178" fill="none"/>
    </clipPath>
    <clipPath id="clip-path-2">
      <rect id="Rectangle_6" data-name="Rectangle 6" width="19.96" height="19.96" transform="translate(3.79 3.81)" fill="none"/>
    </clipPath>
    <clipPath id="clip-path-3">
      <rect id="Rectangle_5" data-name="Rectangle 5" width="20.15" height="20.15" transform="translate(3.7 3.72)" fill="none"/>
    </clipPath>
  </defs>
  <g id="Group_169" data-name="Group 169" clip-path="url(#clip-path)">
    <g id="Group_168" data-name="Group 168" clip-path="url(#clip-path-2)">
      <g id="Group_167" data-name="Group 167" clip-path="url(#clip-path-3)">
        <rect id="Rectangle_4" data-name="Rectangle 4" width="19.59" height="19.3" transform="translate(3.84 4.08)" fill="#77590e"/>
      </g>
    </g>
  </g>
  <rect id="Rectangle_7" data-name="Rectangle 7" width="26.56" height="26.56" rx="3.44" transform="translate(0.5 0.5)" fill="none" stroke="#c69c52" stroke-miterlimit="10" stroke-width="1"/>
</svg>
