<svg xmlns="http://www.w3.org/2000/svg" width="21.583" height="20.619" viewBox="0 0 21.583 20.619">
  <g id="الخيارات_5" data-name="الخيارات 5" transform="translate(0.033 -0.05)">
    <g id="Group_81" data-name="Group 81">
      <path id="Path_80" data-name="Path 80" d="M.8,6.8v-1a4.724,4.724,0,0,1,5-5h10a4.724,4.724,0,0,1,5,5" fill="none" stroke="#c79d52" stroke-linecap="round" stroke-linejoin="round" stroke-width="1.5"/>
      <path id="Path_81" data-name="Path 81" d="M2.5,9.5a9.777,9.777,0,0,1,8.6,8.6" fill="none" stroke="#c79d52" stroke-linecap="round" stroke-linejoin="round" stroke-width="1.5"/>
      <path id="Path_82" data-name="Path 82" d="M1.4,12.8a7.032,7.032,0,0,1,6.3,6.3" fill="none" stroke="#c79d52" stroke-linecap="round" stroke-linejoin="round" stroke-width="1.5"/>
      <path id="Path_83" data-name="Path 83" d="M.8,16.6A3.713,3.713,0,0,1,4,19.8" fill="none" stroke="#c79d52" stroke-linecap="round" stroke-linejoin="round" stroke-width="1.5"/>
      <path id="Path_84" data-name="Path 84" d="M20.8,9.3v3.5a4.724,4.724,0,0,1-5,5h-1" fill="none" stroke="#c79d52" stroke-linecap="round" stroke-linejoin="round" stroke-width="1.5"/>
    </g>
  </g>
</svg>
