<svg xmlns="http://www.w3.org/2000/svg" width="21.583" height="20.619" viewBox="0 0 21.583 20.619">
  <g id="بنر_علوي-05" data-name="بنر علوي-05" transform="translate(0.033 -0.05)">
    <path id="Path_288" data-name="Path 288" d="M20.8,10.2v3.5a4.724,4.724,0,0,1-5,5h-1" fill="none" stroke="#d82323" stroke-linecap="round" stroke-linejoin="round" stroke-width="1.5"/>
    <path id="Path_289" data-name="Path 289" d="M.8,6.8v-1a4.724,4.724,0,0,1,5-5h10a4.724,4.724,0,0,1,5,5" fill="none" stroke="#d82323" stroke-linecap="round" stroke-linejoin="round" stroke-width="1.5"/>
    <path id="Path_290" data-name="Path 290" d="M2.5,9.5a9.777,9.777,0,0,1,8.6,8.6" fill="none" stroke="#d82323" stroke-linecap="round" stroke-linejoin="round" stroke-width="1.5"/>
    <path id="Path_291" data-name="Path 291" d="M1.4,12.8a7.032,7.032,0,0,1,6.3,6.3" fill="none" stroke="#d82323" stroke-linecap="round" stroke-linejoin="round" stroke-width="1.5"/>
    <path id="Path_292" data-name="Path 292" d="M.8,16.6A3.713,3.713,0,0,1,4,19.8" fill="none" stroke="#d82323" stroke-linecap="round" stroke-linejoin="round" stroke-width="1.5"/>
  </g>
</svg>
