<svg id="الخيارات_2" data-name="الخيارات 2" xmlns="http://www.w3.org/2000/svg" width="22" height="27.6" viewBox="0 0 22 27.6">
  <g id="Group_58" data-name="Group 58">
    <g id="Group_47" data-name="Group 47">
      <g id="Group_43" data-name="Group 43">
        <path id="Path_46" data-name="Path 46" d="M12.9,1.4h-4A1.9,1.9,0,0,0,7,3.3V18.8a1.9,1.9,0,0,0,1.9,1.9h9.9a1.9,1.9,0,0,0,1.9-1.9V9.2h-4A3.757,3.757,0,0,1,13,5.5V1.4Z" fill="#fff" stroke="#fff" stroke-miterlimit="10" stroke-width="0.77"/>
        <path id="Path_47" data-name="Path 47" d="M16.7,7.7h3.1L14.3,2.2V5.3A2.433,2.433,0,0,0,16.7,7.7Z" fill="#fff" stroke="#fff" stroke-miterlimit="10" stroke-width="0.275"/>
        <path id="Path_48" data-name="Path 48" d="M8.8,0A3.326,3.326,0,0,0,5.5,2.7h0V18.8a3.329,3.329,0,0,0,3.3,3.3c3.5,0,10.1,0,10.5-.1A3.326,3.326,0,0,0,22,18.7V8.3L13.7,0Zm5.5,2L20,7.7H16.6a2.263,2.263,0,0,1-2.3-2.3Zm2.3,6.8H21V18.9a2.263,2.263,0,0,1-2.3,2.3H8.8a2.263,2.263,0,0,1-2.3-2.3V3.3A2.263,2.263,0,0,1,8.8,1h4.4V5.4A3.372,3.372,0,0,0,16.6,8.8Z" fill="#cba46c"/>
      </g>
      <g id="Group_44" data-name="Group 44">
        <path id="Path_49" data-name="Path 49" d="M10.9,12.5h2.8a.7.7,0,0,0,0-1.4H10.9a.684.684,0,0,0-.7.7A.751.751,0,0,0,10.9,12.5Z" fill="#cba46c"/>
      </g>
      <g id="Group_45" data-name="Group 45">
        <path id="Path_50" data-name="Path 50" d="M10.9,13.9a.7.7,0,0,0,0,1.4h5.6a.7.7,0,1,0,0-1.4Z" fill="#cba46c"/>
      </g>
      <g id="Group_46" data-name="Group 46">
        <path id="Path_51" data-name="Path 51" d="M16.6,16.7H11a.7.7,0,0,0,0,1.4h5.6a.684.684,0,0,0,.7-.7h0A.751.751,0,0,0,16.6,16.7Z" fill="#cba46c"/>
      </g>
    </g>
    <g id="Group_52" data-name="Group 52">
      <g id="Group_48" data-name="Group 48">
        <path id="Path_52" data-name="Path 52" d="M10.1,4.2h-4A1.839,1.839,0,0,0,4.2,6.1V21.6a1.9,1.9,0,0,0,1.9,1.9H16a1.9,1.9,0,0,0,1.9-1.9V11.9h-4a3.757,3.757,0,0,1-3.7-3.7v-4Z" fill="#fff" stroke="#fff" stroke-miterlimit="10" stroke-width="0.77"/>
        <path id="Path_53" data-name="Path 53" d="M14,10.4h3.1L11.6,4.9V8A2.311,2.311,0,0,0,14,10.4Z" fill="#fff" stroke="#fff" stroke-miterlimit="10" stroke-width="0.275"/>
        <path id="Path_54" data-name="Path 54" d="M6.1,2.8A3.326,3.326,0,0,0,2.8,5.5h0V21.6a3.329,3.329,0,0,0,3.3,3.3c3.5,0,10.1,0,10.5-.1a3.326,3.326,0,0,0,2.7-3.3V11.1L11,2.8H6.1Zm5.4,2,5.7,5.7H13.8a2.263,2.263,0,0,1-2.3-2.3V4.8Zm2.3,6.7h4.4V21.6a2.263,2.263,0,0,1-2.3,2.3H6.1a2.263,2.263,0,0,1-2.3-2.3V6.1A2.263,2.263,0,0,1,6.1,3.8h4.4V8.2A3.329,3.329,0,0,0,13.8,11.5Z" fill="#cba46c"/>
      </g>
      <g id="Group_49" data-name="Group 49">
        <path id="Path_55" data-name="Path 55" d="M8.2,15.2H11a.7.7,0,0,0,0-1.4H8.2a.7.7,0,1,0,0,1.4Z" fill="#cba46c"/>
      </g>
      <g id="Group_50" data-name="Group 50">
        <path id="Path_56" data-name="Path 56" d="M8.2,16.6a.7.7,0,0,0,0,1.4h5.6a.7.7,0,0,0,0-1.4Z" fill="#cba46c"/>
      </g>
      <g id="Group_51" data-name="Group 51">
        <path id="Path_57" data-name="Path 57" d="M13.8,19.5H8.2a.7.7,0,0,0,0,1.4h5.6a.684.684,0,0,0,.7-.7h0A.684.684,0,0,0,13.8,19.5Z" fill="#cba46c"/>
      </g>
    </g>
    <g id="Group_57" data-name="Group 57">
      <g id="Group_53" data-name="Group 53">
        <path id="Path_58" data-name="Path 58" d="M7.4,6.9h-4A1.9,1.9,0,0,0,1.5,8.8V24.3a1.9,1.9,0,0,0,1.9,1.9h9.9a1.9,1.9,0,0,0,1.9-1.9V14.6h-4a3.757,3.757,0,0,1-3.7-3.7v-4Z" fill="#fff" stroke="#fff" stroke-miterlimit="10" stroke-width="0.77"/>
        <path id="Path_59" data-name="Path 59" d="M11.2,13.2h3.1L8.8,7.7v3.1A2.433,2.433,0,0,0,11.2,13.2Z" fill="#fff" stroke="#fff" stroke-miterlimit="10" stroke-width="0.275"/>
        <path id="Path_60" data-name="Path 60" d="M3.3,5.5A3.326,3.326,0,0,0,0,8.2H0V24.3a3.329,3.329,0,0,0,3.3,3.3c3.5,0,10.1,0,10.5-.1a3.326,3.326,0,0,0,2.7-3.3V13.8L8.2,5.5Zm5.5,2,5.7,5.7H11.1a2.263,2.263,0,0,1-2.3-2.3Zm2.3,6.8h4.4V24.4a2.263,2.263,0,0,1-2.3,2.3H3.3A2.263,2.263,0,0,1,1,24.4V8.8A2.263,2.263,0,0,1,3.3,6.5H7.7v4.4A3.372,3.372,0,0,0,11.1,14.3Z" fill="#cba46c"/>
      </g>
      <g id="Group_54" data-name="Group 54">
        <path id="Path_61" data-name="Path 61" d="M5.4,18H8.2a.773.773,0,0,0,.8-.7.684.684,0,0,0-.7-.7H5.4a.684.684,0,0,0-.7.7A.751.751,0,0,0,5.4,18Z" fill="#cba46c"/>
      </g>
      <g id="Group_55" data-name="Group 55">
        <path id="Path_62" data-name="Path 62" d="M5.4,19.4a.7.7,0,0,0,0,1.4H11a.7.7,0,0,0,0-1.4Z" fill="#cba46c"/>
      </g>
      <g id="Group_56" data-name="Group 56">
        <path id="Path_63" data-name="Path 63" d="M11.1,22.2H5.4a.7.7,0,0,0,0,1.4H11a.684.684,0,0,0,.7-.7h0A.608.608,0,0,0,11.1,22.2Z" fill="#cba46c"/>
      </g>
    </g>
  </g>
</svg>
