<svg id="التحميلات_-02" data-name="التحميلات -02" xmlns="http://www.w3.org/2000/svg" width="20.8" height="20.4" viewBox="0 0 20.8 20.4">
  <path id="Path_25" data-name="Path 25" d="M20.3,8.2c-2.5-2.6-5-5.1-7.5-7.6h0a1.6,1.6,0,0,0-2.5,0C7.8,2.9,5.4,5.3,3.1,7.7l-.5.5a1.382,1.382,0,0,0-.5.9.6.6,0,0,0,.1.4c.1.1.2.2.3.2h.1a2.483,2.483,0,0,0,.9-.1c.3-.2,3.3-3.3,5.2-5.4,1-1,1.8-1.9,2.1-2.2a.774.774,0,0,1,.9-.1l7.2,7.2a1.314,1.314,0,0,1,.3,1v8.1a.684.684,0,0,1-.7.7H4.2a.684.684,0,0,1-.7-.7V15.5a.1.1,0,0,0-.1-.1H2.1a.1.1,0,0,0-.1.1v3c0,1.3.8,1.9,2.5,1.9H18.4c1.7,0,2.4-.6,2.4-1.9v-9A2.106,2.106,0,0,0,20.3,8.2Z" fill="#6e5835"/>
  <path id="Path_26" data-name="Path 26" d="M9.4,13.8c-.5.5-1.1,1-1.6,1.6a.355.355,0,0,0-.2.3.914.914,0,0,0,.3.5c.5.5.6.4.9.1l2.5-2.5.9-.9a.758.758,0,0,0,.2-.4c0-.1-.1-.2-.2-.4-.7-.6-1.3-1.3-1.9-1.9A9.266,9.266,0,0,1,8.9,8.8a.914.914,0,0,0-.5-.3h0a.914.914,0,0,0-.5.3c-.4.4-.4.5,0,1l.9.9,1,1H.6c-.3,0-.4,0-.5.1a1.949,1.949,0,0,0-.1.8c0,.7.1.7.6.7H10Z" fill="#6e5835"/>
</svg>
