<svg xmlns="http://www.w3.org/2000/svg" width="18.042" height="19.906" viewBox="0 0 18.042 19.906">
  <g id="بنر_علوي_1" data-name="بنر علوي 1" transform="translate(0.071)">
    <g id="Group_157" data-name="Group 157">
      <g id="بنر_علوي">
        <g id="Group_156" data-name="Group 156">
          <path id="Path_285" data-name="Path 285" d="M14.1,9a4.865,4.865,0,0,0,1.4,4,13.577,13.577,0,0,1,1.2,1.2,1.126,1.126,0,0,1-.9,1.8H2.1a1.126,1.126,0,0,1-.9-1.8L2.4,13c1.7-1.5,1.5-4,1.2-5.4a5.533,5.533,0,0,1,.6-3.8A5.629,5.629,0,0,1,9.1,1" fill="none" stroke="#6e5835" stroke-linecap="round" stroke-miterlimit="10" stroke-width="2"/>
          <path id="Path_286" data-name="Path 286" d="M11.9,16A2.9,2.9,0,0,1,9,18.9,2.862,2.862,0,0,1,6,16" fill="none" stroke="#6e5835" stroke-miterlimit="10" stroke-width="2"/>
        </g>
      </g>
    </g>
  </g>
</svg>
