<svg id="التحميلات_3" data-name="التحميلات 3" xmlns="http://www.w3.org/2000/svg" width="21.9" height="21.8" viewBox="0 0 21.9 21.8">
  <g id="Group_29" data-name="Group 29">
    <path id="Path_27" data-name="Path 27" d="M0,13.4V8.2A3.192,3.192,0,0,1,1.6,5.4a2.716,2.716,0,0,1,1.7-.6h7.9a.669.669,0,0,1,.7.6.76.76,0,0,1-.6.8H3.2A1.811,1.811,0,0,0,1.5,7.7V18.6A1.834,1.834,0,0,0,3,20.4H13.9a1.967,1.967,0,0,0,1.9-1.9V10.7a.749.749,0,0,1,.6-.7c.3,0,.7.2.7.5v8.2a3.19,3.19,0,0,1-2.5,3,2.769,2.769,0,0,1-.9.1H3.1a3.259,3.259,0,0,1-1.3-.4A3.029,3.029,0,0,1,.2,19.2c-.2-.1-.2-.4-.2-.7V13.4Z" fill="#6e5835"/>
    <path id="Path_28" data-name="Path 28" d="M20.2,2.8l-.8.8C16.7,6.4,9.4,14.1,9.2,14.2A.849.849,0,0,1,8,13c.6-.6,8.4-8.8,9.4-9.8l1.5-1.5H12.7a.773.773,0,0,1-.8-.7,1.071,1.071,0,0,1,1-1h8.2a.789.789,0,0,1,.8.8V8.9a.849.849,0,0,1-.7.8.76.76,0,0,1-.9-.5c-.1-.1-.1-.2-.1-.4V2.9c.1.1.1,0,0-.1Z" fill="#6e5835"/>
  </g>
  <g id="Group_30" data-name="Group 30">
    <path id="Path_29" data-name="Path 29" d="M0,13.4V8.2A3.192,3.192,0,0,1,1.6,5.4a2.716,2.716,0,0,1,1.7-.6h7.9a.669.669,0,0,1,.7.6.76.76,0,0,1-.6.8H3.2A1.811,1.811,0,0,0,1.5,7.7V18.6A1.834,1.834,0,0,0,3,20.4H13.9a1.967,1.967,0,0,0,1.9-1.9V10.7a.749.749,0,0,1,.6-.7c.3,0,.7.2.7.5v8.2a3.19,3.19,0,0,1-2.5,3,2.769,2.769,0,0,1-.9.1H3.1a3.259,3.259,0,0,1-1.3-.4A3.029,3.029,0,0,1,.2,19.2c-.2-.1-.2-.4-.2-.7V13.4Z" fill="#6e5835"/>
    <path id="Path_30" data-name="Path 30" d="M20.2,2.8l-.8.8C16.7,6.4,9.4,14.1,9.2,14.2A.849.849,0,0,1,8,13c.6-.6,8.4-8.8,9.4-9.8l1.5-1.5H12.7a.773.773,0,0,1-.8-.7,1.071,1.071,0,0,1,1-1h8.2a.789.789,0,0,1,.8.8V8.9a.849.849,0,0,1-.7.8.76.76,0,0,1-.9-.5c-.1-.1-.1-.2-.1-.4V2.9c.1.1.1,0,0-.1Z" fill="#6e5835"/>
  </g>
</svg>
