<svg id="المفضلة_4" data-name="المفضلة 4" xmlns="http://www.w3.org/2000/svg" width="3" height="17" viewBox="0 0 3 17">
  <path id="Path_155" data-name="Path 155" d="M1.5,0a1.268,1.268,0,0,1,.6.1c.2.1.3.2.5.3a2.186,2.186,0,0,1,.3.5,1.268,1.268,0,0,1,.1.6,1.268,1.268,0,0,1-.1.6c-.1.2-.2.3-.3.5-.2.1-.3.2-.5.3a1.268,1.268,0,0,1-.6.1,1.268,1.268,0,0,1-.6-.1C.7,2.8.6,2.7.4,2.6.3,2.4.2,2.3.1,2.1A1.268,1.268,0,0,1,0,1.5,1.268,1.268,0,0,1,.1.9C.2.7.3.6.4.4S.7.2.9.1A1.268,1.268,0,0,1,1.5,0Z" fill="#6e5835"/>
  <path id="Path_156" data-name="Path 156" d="M1.5,7a1.268,1.268,0,0,1,.6.1c.2.1.3.2.5.3a2.186,2.186,0,0,1,.3.5,1.268,1.268,0,0,1,.1.6,1.268,1.268,0,0,1-.1.6c-.1.2-.2.3-.3.5-.2.1-.3.2-.5.3a1.268,1.268,0,0,1-.6.1,1.268,1.268,0,0,1-.6-.1C.7,9.8.6,9.7.4,9.6.3,9.4.2,9.3.1,9.1A1.268,1.268,0,0,1,0,8.5a1.268,1.268,0,0,1,.1-.6c.1-.2.2-.3.3-.5s.3-.2.5-.3A1.268,1.268,0,0,1,1.5,7Z" fill="#6e5835"/>
  <path id="Path_157" data-name="Path 157" d="M1.5,14a1.268,1.268,0,0,1,.6.1c.2.1.3.2.5.3a2.186,2.186,0,0,1,.3.5,1.268,1.268,0,0,1,.1.6,1.268,1.268,0,0,1-.1.6c-.1.2-.2.3-.3.5a2.186,2.186,0,0,1-.5.3,1.268,1.268,0,0,1-.6.1,1.268,1.268,0,0,1-.6-.1c-.2-.1-.3-.2-.5-.3a2.186,2.186,0,0,1-.3-.5,1.268,1.268,0,0,1-.1-.6,1.268,1.268,0,0,1,.1-.6c.1-.2.2-.3.3-.5s.3-.2.5-.3A1.268,1.268,0,0,1,1.5,14Z" fill="#6e5835"/>
</svg>
