<svg xmlns="http://www.w3.org/2000/svg" width="23.941" height="24.1" viewBox="0 0 23.941 24.1">
  <g id="Group_8" data-name="Group 8" transform="translate(-0.2 -0.2)">
    <path id="Path_6" data-name="Path 6" d="M3.1,9.5V8.3h.4a1.2,1.2,0,1,0,0-2.4H2.7c-.2-.1-.4.1-.4.3V9.5a.43.43,0,0,0,.4.4A.43.43,0,0,0,3.1,9.5Zm0-2.9h.4a.4.4,0,0,1,0,.8H3.1Z" fill="#6f5835"/>
    <path id="Path_7" data-name="Path 7" d="M24,19l-4.2-3a.3.3,0,0,0-.4,0,.52.52,0,0,0-.2.4v1A6.785,6.785,0,0,0,15,19.3a6.6,6.6,0,0,0-1.9,4.6.392.392,0,0,0,.4.4.355.355,0,0,0,.3-.2l.1-.1a4.06,4.06,0,0,1,3.8-2.5h1.4v1a.52.52,0,0,0,.2.4.3.3,0,0,0,.4,0l4.2-3c.1-.1.2-.2.2-.3C24.2,19.2,24.1,19.1,24,19Zm-4,2.6V21a.43.43,0,0,0-.4-.4H17.7A5,5,0,0,0,14.2,22h0a5.178,5.178,0,0,1,1.4-2.2,5.606,5.606,0,0,1,4-1.7h0a.43.43,0,0,0,.4-.4v-.6l3.1,2.2C23.1,19.4,20,21.6,20,21.6Z" fill="#6f5835"/>
    <path id="Path_8" data-name="Path 8" d="M6,9.9a2.2,2.2,0,0,0,1.5-.6,2.035,2.035,0,0,0,.6-1.5h0a2.2,2.2,0,0,0-.6-1.5A2.456,2.456,0,0,0,6,5.8a.392.392,0,0,0-.4.4V9.5a.43.43,0,0,0,.4.4Zm.4-3.2c.2,0,.3.1.5.3a1.268,1.268,0,0,1,.4.9h0a1.222,1.222,0,0,1-.4.9c-.2.1-.3.2-.5.2Z" fill="#6f5835"/>
    <path id="Path_9" data-name="Path 9" d="M12.8,20.1H6.4a1.216,1.216,0,0,1-1.2-1.2V11.7h7a1.216,1.216,0,0,0,1.2-1.2V5.2A1.216,1.216,0,0,0,12.2,4h-7V2a1,1,0,0,1,1-1h9.4V4.7a1.216,1.216,0,0,0,1.2,1.2h4.1v9.9a.4.4,0,0,0,.8,0V5.5a.367.367,0,0,0-.1-.3L16.3.3A.367.367,0,0,0,16,.2H6.1A1.793,1.793,0,0,0,4.3,2V3.9H1.4A1.216,1.216,0,0,0,.2,5.1V6.8a.43.43,0,0,0,.4.4A.43.43,0,0,0,1,6.8V5.2a.43.43,0,0,1,.4-.4H12.2a.43.43,0,0,1,.4.4v5.2a.43.43,0,0,1-.4.4H1.4a.367.367,0,0,1-.3-.1c0-.1-.1-.3-.1-.4v-2a.366.366,0,0,0-.4-.4.366.366,0,0,0-.4.4v2.1a1.222,1.222,0,0,0,.4.9,1.268,1.268,0,0,0,.9.4H4.4v7.2A2.112,2.112,0,0,0,6.5,21h6.4a.43.43,0,0,0,.4-.4A.642.642,0,0,0,12.8,20.1ZM16.3,1.5l4,3.6H16.7a.43.43,0,0,1-.4-.4Z" fill="#6f5835"/>
    <path id="Path_10" data-name="Path 10" d="M17.8,12.6H7.2a.4.4,0,1,0,0,.8H17.8a.4.4,0,0,0,0-.8Z" fill="#6f5835"/>
    <path id="Path_11" data-name="Path 11" d="M17.8,14.3H7.2a.4.4,0,1,0,0,.8H17.8a.4.4,0,1,0,0-.8Z" fill="#6f5835"/>
    <path id="Path_12" data-name="Path 12" d="M11,6.6a.4.4,0,0,0,0-.8H9.3a.43.43,0,0,0-.4.4V9.5a.4.4,0,0,0,.8,0V8.3H11a.4.4,0,0,0,0-.8H9.7V6.6Z" fill="#6f5835"/>
    <path id="Path_13" data-name="Path 13" d="M17.8,15.9H7.2a.4.4,0,1,0,0,.8H17.8a.4.4,0,1,0,0-.8Z" fill="#6f5835"/>
  </g>
</svg>
