<svg id="التحميلات_4" data-name="التحميلات 4" xmlns="http://www.w3.org/2000/svg" width="16.6" height="16.6" viewBox="0 0 16.6 16.6">
  <path id="Path_31" data-name="Path 31" d="M8.3,0A8.752,8.752,0,0,1,9.9.2a8.8,8.8,0,0,1,1.5.5,6.376,6.376,0,0,1,1.4.8,6.34,6.34,0,0,1,2.3,2.3,9.993,9.993,0,0,1,.8,1.4,8.8,8.8,0,0,1,.5,1.5,8.752,8.752,0,0,1,.2,1.6,8.752,8.752,0,0,1-.2,1.6,8.8,8.8,0,0,1-.5,1.5,6.376,6.376,0,0,1-.8,1.4,6.34,6.34,0,0,1-2.3,2.3,9.993,9.993,0,0,1-1.4.8,8.8,8.8,0,0,1-1.5.5,8.752,8.752,0,0,1-1.6.2,8.752,8.752,0,0,1-1.6-.2,8.8,8.8,0,0,1-1.5-.5,6.376,6.376,0,0,1-1.4-.8,6.34,6.34,0,0,1-2.3-2.3,9.993,9.993,0,0,1-.8-1.4A8.8,8.8,0,0,1,.2,9.9,9.971,9.971,0,0,1,0,8.3,8.752,8.752,0,0,1,.2,6.7,8.8,8.8,0,0,1,.7,5.2a6.376,6.376,0,0,1,.8-1.4A6.34,6.34,0,0,1,3.8,1.5,9.993,9.993,0,0,1,5.2.7,8.8,8.8,0,0,1,6.7.2,7.772,7.772,0,0,1,8.3,0Z" fill="#6e5835"/>
  <path id="Path_32" data-name="Path 32" d="M12.7,8,6.1,11.6V4.4Z" fill="#fff"/>
</svg>
