<svg id="السلسلة-03" xmlns="http://www.w3.org/2000/svg" width="16.959" height="16.912" viewBox="0 0 16.959 16.912">
  <path id="Path_149" data-name="Path 149" d="M8.52,16A7.52,7.52,0,1,1,16,8.52,7.52,7.52,0,0,1,8.52,16Zm6-13.54a8.485,8.485,0,1,0-12,12A8.52,8.52,0,0,0,17,8.52a8.43,8.43,0,0,0-2.5-6Z" transform="translate(-0.041 0.019)" fill="#6e5835"/>
  <path id="Path_150" data-name="Path 150" d="M6.56,11.76V5.28L11.4,8.52Zm6-3.63L6.34,4A.55.55,0,0,0,5.8,4a.48.48,0,0,0-.29.43V12.7a.48.48,0,0,0,.29.43.6.6,0,0,0,.24,0,.55.55,0,0,0,.3-.09L12.6,8.91a.48.48,0,0,0,.21-.39.47.47,0,0,0-.21-.39Z" transform="translate(-0.041 0.019)" fill="#6e5835"/>
</svg>
