<svg id="الخيارات-11" xmlns="http://www.w3.org/2000/svg" width="25.5" height="23.566" viewBox="0 0 25.5 23.566">
  <g id="Group_125" data-name="Group 125">
    <path id="Path_129" data-name="Path 129" d="M7.7,0h5.2a2.559,2.559,0,0,1,2.3,2.3v9a2.616,2.616,0,0,1-1.8,2.3H8.5c-.2,0-.3,0-.4.2-.5.6-1,1-1.6,1.6L4.2,17.7a.592.592,0,0,1-.7.1,1.791,1.791,0,0,1-.5-.7,24.622,24.622,0,0,1,.2-2.6,2.2,2.2,0,0,1,.1-.8c0-.1,0-.2-.2-.2H1.8A2.369,2.369,0,0,1,0,11.2V2.3A2.252,2.252,0,0,1,1.6.2,1.486,1.486,0,0,1,2.5,0Zm-3,15.3,2.6-2.6a.1.1,0,0,1,.1-.1.812.812,0,0,1,.8-.4h4.6A1.216,1.216,0,0,0,14,11V2.4a1.11,1.11,0,0,0-1.1-1.1H2.6A1.155,1.155,0,0,0,1.4,2.5V11a1.24,1.24,0,0,0,1.2,1.3H4.2c.3,0,.6.2.6.4v1.2A3.329,3.329,0,0,0,4.7,15.3Z" fill="#c79d52"/>
    <path id="Path_130" data-name="Path 130" d="M20.9,21.4a7.569,7.569,0,0,0-.1-1.5c0-.3-.1-.7-.1-1a.645.645,0,0,1,.6-.6H23a1.155,1.155,0,0,0,1.2-1.2V8.4a1.184,1.184,0,0,0-1.3-1.2H16.5c-.3,0-.3-.1-.3-.3V6.3c0-.2,0-.3.1-.3h6.9a2.354,2.354,0,0,1,2.3,1.9v9.3a2.062,2.062,0,0,1-1,1.7,2.9,2.9,0,0,1-1.8.5c-.2,0-.4-.1-.5,0s0,.3,0,.5c0,.7.1,1.3.1,2.1v1a.55.55,0,0,1-.3.5.471.471,0,0,1-.6-.1l-3.6-3.6-.1-.1a.55.55,0,0,0-.5-.3H12.8a2.4,2.4,0,0,1-2.3-2.3V14.7c0-.2.1-.3.3-.2h.6c.2,0,.3,0,.3.3v2.3a1.1,1.1,0,0,0,1.2,1.2h4.6a.909.909,0,0,1,.8.4c0,.1.1.1.2.2C19.2,19.8,20.1,20.4,20.9,21.4Z" fill="#c79d52"/>
    <g id="Group_124" data-name="Group 124">
      <g id="Group_122" data-name="Group 122">
        <path id="Path_131" data-name="Path 131" d="M7.6,8.4a2.544,2.544,0,0,1-.7-.2A2.814,2.814,0,0,0,7,7.4a.749.749,0,0,0-.1-.5l-.3-.3c-.1-.2-.2-.2-.3-.3a3.289,3.289,0,0,1-.6-.6c0-.2-.2-.4-.4-.7s-.1-.5-.1-.8A1.309,1.309,0,0,1,5.8,3a3.985,3.985,0,0,1,1.7-.3A2.059,2.059,0,0,1,9,3a.938.938,0,0,1,.6.8c0,.3-.3.4-1,.6-.1-.4-.2-.6-.5-.7-.4-.3-.5-.4-.9-.4-.2,0-.3.1-.6.2-.2.1-.2.4-.2.7a1.268,1.268,0,0,0,.1.6,1,1,0,0,0,.4.5c.1.1.1.4.4.5.2.2.4.5.5.6.1,0,.2.3.4.5a1.072,1.072,0,0,1,.2.6C8.3,8.1,8.1,8.4,7.6,8.4Zm-.7,2.4a.735.735,0,0,1-.2-.6A.713.713,0,0,1,7,9.6a.735.735,0,0,1,.6-.2,1.421,1.421,0,0,1,.6.2.75.75,0,0,1,0,1.2,1.056,1.056,0,0,1-.5.2C7.2,11.1,7,11,6.9,10.8Z" fill="#c79d52"/>
      </g>
      <g id="Group_123" data-name="Group 123">
        <path id="Path_132" data-name="Path 132" d="M7.6,8.4a2.544,2.544,0,0,1-.7-.2A2.814,2.814,0,0,0,7,7.4a.749.749,0,0,0-.1-.5l-.3-.3c-.1-.2-.2-.2-.3-.3a3.289,3.289,0,0,1-.6-.6c0-.2-.2-.4-.4-.7s-.1-.5-.1-.8A1.309,1.309,0,0,1,5.8,3a3.985,3.985,0,0,1,1.7-.3A2.059,2.059,0,0,1,9,3a.938.938,0,0,1,.6.8c0,.3-.3.4-1,.6-.1-.4-.2-.6-.5-.7-.4-.3-.5-.4-.9-.4-.2,0-.3.1-.6.2-.2.1-.2.4-.2.7a1.268,1.268,0,0,0,.1.6,1,1,0,0,0,.4.5c.1.1.1.4.4.5.2.2.4.5.5.6.1,0,.2.3.4.5a1.072,1.072,0,0,1,.2.6C8.3,8.1,8.1,8.4,7.6,8.4Zm-.7,2.4a.735.735,0,0,1-.2-.6A.713.713,0,0,1,7,9.6a.735.735,0,0,1,.6-.2,1.421,1.421,0,0,1,.6.2.75.75,0,0,1,0,1.2,1.056,1.056,0,0,1-.5.2C7.2,11.1,7,11,6.9,10.8Z" fill="#c79d52"/>
      </g>
    </g>
    <path id="Path_133" data-name="Path 133" d="M15.7,13.7,17.1,16,22,10.7" fill="none" stroke="#c79d52" stroke-linecap="round" stroke-miterlimit="10" stroke-width="1.233"/>
  </g>
</svg>
