<svg xmlns="http://www.w3.org/2000/svg" width="30.6" height="28.366" viewBox="0 0 30.6 28.366">
  <g id="بنر_سفلي_2" data-name="بنر سفلي 2" opacity="0.4">
    <path id="Path_226" data-name="Path 226" d="M9.2,0h6.3a2.987,2.987,0,0,1,2.7,2.7V13.5A2.916,2.916,0,0,1,16,16.2H10.1c-.2,0-.4,0-.5.2-.6.7-1.3,1.3-1.9,1.9L5,21a.755.755,0,0,1-.8.1.822.822,0,0,1-.4-.6c0-.9.1-2,.2-3.1a2.483,2.483,0,0,1,.1-.9c0-.1,0-.2-.2-.2H2.3A3,3,0,0,1,0,13.4V2.7A2.58,2.58,0,0,1,1.9.2,2.153,2.153,0,0,1,3,0ZM5.7,18.4l3.1-3.1a.1.1,0,0,1,.1-.1.874.874,0,0,1,.9-.5h5.5a1.538,1.538,0,0,0,1.5-1.5V2.8a1.43,1.43,0,0,0-1.4-1.4H3.1A1.473,1.473,0,0,0,1.6,2.9V13.2a1.558,1.558,0,0,0,1.5,1.6H5c.4,0,.7.2.7.5v1.5A4.3,4.3,0,0,0,5.7,18.4Z" fill="#6f5936"/>
    <path id="Path_227" data-name="Path 227" d="M25.1,25.7a10.283,10.283,0,0,0-.1-1.8c0-.4-.1-.8-.1-1.3a.751.751,0,0,1,.7-.7h2a1.473,1.473,0,0,0,1.5-1.5V9.9a1.5,1.5,0,0,0-1.6-1.5H19.8c-.4,0-.4-.1-.4-.4V7.3c0-.2.1-.2.2-.2h8.3a2.62,2.62,0,0,1,2.7,2.3V20.6a2.717,2.717,0,0,1-1.2,2.1,3.5,3.5,0,0,1-2.2.6c-.2,0-.5-.1-.6,0s0,.4,0,.6c0,.8.1,1.6.1,2.5v1.3a.67.67,0,0,1-1.1.5l-4.3-4.3-.2.1a.822.822,0,0,0-.6-.4H15.2a2.754,2.754,0,0,1-2.7-2.7V18c0-.2.1-.4.4-.2h.7c.2,0,.4,0,.4.4v2.7a1.417,1.417,0,0,0,1.5,1.5H21c.4,0,.9.5.9.5A24.109,24.109,0,0,1,25.1,25.7Z" fill="#6f5936"/>
    <g id="Group_138" data-name="Group 138">
      <g id="Group_136" data-name="Group 136">
        <path id="Path_228" data-name="Path 228" d="M9.1,10a3.091,3.091,0,0,1-.8-.2,3.445,3.445,0,0,0,.1-.9,1.268,1.268,0,0,0-.1-.6L8,8a1.18,1.18,0,0,0-.5-.5,1.874,1.874,0,0,1-.6-.7c-.1-.2-.3-.4-.5-.7A2.079,2.079,0,0,1,6.3,5,1.683,1.683,0,0,1,7,3.5a4.211,4.211,0,0,1,2-.4,3.661,3.661,0,0,1,1.8.4,1.018,1.018,0,0,1,.7.9c0,.3-.4.6-1.1.8a.993.993,0,0,0-.6-.8A1.862,1.862,0,0,0,8.7,4a2.544,2.544,0,0,0-.7.2c-.3.1-.3.5-.3.8a1.7,1.7,0,0,0,.1.7c.2.4.3.6.5.7s.2.4.5.6l.6.6a6.125,6.125,0,0,0,.4.6A3.091,3.091,0,0,1,10,9C9.9,9.7,9.7,10,9.1,10Zm-.8,3a.952.952,0,0,1-.2-.7.867.867,0,0,1,.4-.7.952.952,0,0,1,.7-.2,1.854,1.854,0,0,1,.7.2,1.012,1.012,0,0,1,.4.7c0,.2-.1.6-.4.7a1.854,1.854,0,0,1-.7.2A.694.694,0,0,1,8.3,13Z" fill="#6f5936"/>
      </g>
      <g id="Group_137" data-name="Group 137">
        <path id="Path_229" data-name="Path 229" d="M9.1,10a3.091,3.091,0,0,1-.8-.2,3.445,3.445,0,0,0,.1-.9,1.268,1.268,0,0,0-.1-.6L8,8a1.18,1.18,0,0,0-.5-.5,1.874,1.874,0,0,1-.6-.7c-.1-.2-.3-.4-.5-.7A2.079,2.079,0,0,1,6.3,5,1.683,1.683,0,0,1,7,3.5a4.211,4.211,0,0,1,2-.4,3.661,3.661,0,0,1,1.8.4,1.018,1.018,0,0,1,.7.9c0,.3-.4.6-1.1.8a.993.993,0,0,0-.6-.8A1.862,1.862,0,0,0,8.7,4a2.544,2.544,0,0,0-.7.2c-.3.1-.3.5-.3.8a1.7,1.7,0,0,0,.1.7c.2.4.3.6.5.7s.2.4.5.6l.6.6a6.125,6.125,0,0,0,.4.6A3.091,3.091,0,0,1,10,9C9.9,9.7,9.7,10,9.1,10Zm-.8,3a.952.952,0,0,1-.2-.7.867.867,0,0,1,.4-.7.952.952,0,0,1,.7-.2,1.854,1.854,0,0,1,.7.2,1.012,1.012,0,0,1,.4.7c0,.2-.1.6-.4.7a1.854,1.854,0,0,1-.7.2A.694.694,0,0,1,8.3,13Z" fill="#6f5936"/>
      </g>
    </g>
    <path id="Path_230" data-name="Path 230" d="M18.9,16.4l1.6,2.9,6-6.4" fill="none" stroke="#6f5936" stroke-linecap="round" stroke-miterlimit="10" stroke-width="1.483"/>
  </g>
</svg>
