<svg id="بنر_سفلي-09" data-name="بنر سفلي-09" xmlns="http://www.w3.org/2000/svg" width="32" height="31.7" viewBox="0 0 32 31.7">
  <g id="Group_142" data-name="Group 142">
    <path id="Path_239" data-name="Path 239" d="M9.9,0h6.3a2.987,2.987,0,0,1,2.7,2.7V13.5a2.807,2.807,0,0,1-2.2,2.7H10.8c-.2,0-.4,0-.5.2-.6.7-1.2,1.2-1.9,1.9L5.7,21c-.2.2-.5.2-.9.1a.822.822,0,0,1-.4-.6c0-1,.1-2,.2-3.1a3.4,3.4,0,0,1,.1-1c0-.1,0-.2-.2-.2H2.9A3.023,3.023,0,0,1,.7,13.4V2.8A2.807,2.807,0,0,1,2.6.3,1.548,1.548,0,0,1,3.7,0ZM6.3,18.5l3.1-3.1a.1.1,0,0,1,.1-.1c.2-.4.5-.5,1-.5h5.6a1.473,1.473,0,0,0,1.5-1.5V2.9a1.43,1.43,0,0,0-1.4-1.4H3.8A1.473,1.473,0,0,0,2.3,3V13.2a1.5,1.5,0,0,0,1.5,1.6H5.7c.4,0,.7.2.7.5v1.5A4.879,4.879,0,0,0,6.3,18.5Z" fill="#6f5936"/>
    <path id="Path_240" data-name="Path 240" d="M25.9,25.8a9.15,9.15,0,0,0-.1-1.7c0-.4-.1-.9-.1-1.2a.85.85,0,0,1,.7-.7h2a1.417,1.417,0,0,0,1.5-1.5V10.2a1.446,1.446,0,0,0-1.6-1.5H20.5c-.5-.1-.5-.3-.5-.5V7.5c0-.2.1-.2.2-.2h8.3a2.705,2.705,0,0,1,2.7,2.4V20.9A2.745,2.745,0,0,1,30.1,23a3.5,3.5,0,0,1-2.2.6c-.2,0-.5-.1-.6,0s0,.4,0,.6c0,.9.1,1.6.1,2.5v1.2a.67.67,0,0,1-1.1.5L22,24.1l-.1-.1a.822.822,0,0,0-.6-.4H16a2.689,2.689,0,0,1-2.7-2.7v-3c0-.2.1-.4.4-.2h.7c.2,0,.4,0,.4.4v2.7a1.368,1.368,0,0,0,1.5,1.5h5.6a1.107,1.107,0,0,1,1,.5c0,.1.1.1.2.2C23.9,23.8,24.9,24.7,25.9,25.8Z" fill="#6f5936"/>
    <g id="Group_141" data-name="Group 141">
      <g id="Group_139" data-name="Group 139">
        <path id="Path_241" data-name="Path 241" d="M9.8,10.1a5.073,5.073,0,0,1-.9-.2,4.142,4.142,0,0,0,.1-1,1.083,1.083,0,0,0-.1-.6A.769.769,0,0,0,8.7,8a1.756,1.756,0,0,0-.5-.4,5.008,5.008,0,0,1-.7-.8A5,5,0,0,0,7,6.1c-.2-.4-.1-.6-.1-1a1.8,1.8,0,0,1,.7-1.5,3.146,3.146,0,0,1,2-.5,3.287,3.287,0,0,1,1.7.4c.5.3.7.6.7,1s-.4.6-1.1.7a1.332,1.332,0,0,0-.6-.9A1.4,1.4,0,0,0,9.4,4a1.445,1.445,0,0,0-.7.2c-.3.2-.3.5-.3.9a1.7,1.7,0,0,0,.1.7c.1.2.2.5.4.6a2.309,2.309,0,0,0,.5.7l.6.6a6.125,6.125,0,0,0,.4.6.952.952,0,0,1,.2.7C10.6,9.8,10.4,10.1,9.8,10.1ZM8.9,13a.952.952,0,0,1-.2-.7.867.867,0,0,1,.4-.7.952.952,0,0,1,.7-.2,1.854,1.854,0,0,1,.7.2,1.012,1.012,0,0,1,.4.7c0,.2-.1.6-.4.7a1.854,1.854,0,0,1-.7.2A.631.631,0,0,1,8.9,13Z" fill="#6f5936"/>
      </g>
      <g id="Group_140" data-name="Group 140">
        <path id="Path_242" data-name="Path 242" d="M9.8,10.1a5.073,5.073,0,0,1-.9-.2,4.142,4.142,0,0,0,.1-1,1.083,1.083,0,0,0-.1-.6A.769.769,0,0,0,8.7,8a1.756,1.756,0,0,0-.5-.4,5.008,5.008,0,0,1-.7-.8A5,5,0,0,0,7,6.1c-.2-.4-.1-.6-.1-1a1.8,1.8,0,0,1,.7-1.5,3.146,3.146,0,0,1,2-.5,3.287,3.287,0,0,1,1.7.4c.5.3.7.6.7,1s-.4.6-1.1.7a1.332,1.332,0,0,0-.6-.9A1.4,1.4,0,0,0,9.4,4a1.445,1.445,0,0,0-.7.2c-.3.2-.3.5-.3.9a1.7,1.7,0,0,0,.1.7c.1.2.2.5.4.6a2.309,2.309,0,0,0,.5.7l.6.6a6.125,6.125,0,0,0,.4.6.952.952,0,0,1,.2.7C10.6,9.8,10.4,10.1,9.8,10.1ZM8.9,13a.952.952,0,0,1-.2-.7.867.867,0,0,1,.4-.7.952.952,0,0,1,.7-.2,1.854,1.854,0,0,1,.7.2,1.012,1.012,0,0,1,.4.7c0,.2-.1.6-.4.7a1.854,1.854,0,0,1-.7.2A.631.631,0,0,1,8.9,13Z" fill="#6f5936"/>
      </g>
    </g>
    <path id="Path_243" data-name="Path 243" d="M19.7,16.5l1.5,2.8,6-6.4" fill="none" stroke="#6f5936" stroke-linecap="round" stroke-miterlimit="10" stroke-width="1.485"/>
  </g>
  <g id="Group_143" data-name="Group 143">
    <line id="Line_35" data-name="Line 35" x2="30" transform="translate(1 30.7)" fill="none" stroke="#c69c52" stroke-linecap="round" stroke-width="2"/>
  </g>
</svg>
