<svg xmlns="http://www.w3.org/2000/svg" width="19.914" height="19.914" viewBox="0 0 19.914 19.914">
  <g id="بنر_علوي_2" data-name="بنر علوي 2" transform="translate(-0.4 -2.4)">
    <g id="Group_161" data-name="Group 161">
      <g id="بنر_علوي">
        <g id="Group_160" data-name="Group 160">
          <path id="Path_287" data-name="Path 287" d="M7.9,3.4a6.151,6.151,0,0,1,1.3.1,5.638,5.638,0,0,1,1.2.4,10.908,10.908,0,0,1,1.1.6,3.915,3.915,0,0,1,1,.8,3.915,3.915,0,0,1,.8,1c.2.4.4.7.6,1.1a5.638,5.638,0,0,1,.4,1.2,5.283,5.283,0,0,1,.1,1.3,6.151,6.151,0,0,1-.1,1.3,5.638,5.638,0,0,1-.4,1.2,10.908,10.908,0,0,1-.6,1.1,7.006,7.006,0,0,1-.8,1,3.915,3.915,0,0,1-1,.8c-.4.2-.7.4-1.1.6a5.638,5.638,0,0,1-1.2.4,5.283,5.283,0,0,1-1.3.1,6.151,6.151,0,0,1-1.3-.1,5.638,5.638,0,0,1-1.2-.4,10.907,10.907,0,0,1-1.1-.6,3.915,3.915,0,0,1-1-.8,3.915,3.915,0,0,1-.8-1c-.2-.4-.4-.7-.6-1.1a5.638,5.638,0,0,1-.4-1.2,5.283,5.283,0,0,1-.1-1.3,6.151,6.151,0,0,1,.1-1.3,4.234,4.234,0,0,1,.4-1.2,10.908,10.908,0,0,1,.6-1.1,7.006,7.006,0,0,1,.8-1,3.915,3.915,0,0,1,1-.8,3,3,0,0,1,1.1-.6c.4-.1.8-.3,1.2-.4A6.151,6.151,0,0,1,7.9,3.4Z" fill="none" stroke="#6e5835" stroke-width="2"/>
          <line id="Line_36" data-name="Line 36" x2="6" y2="6" transform="translate(12.9 14.9)" fill="none" stroke="#6e5835" stroke-linecap="round" stroke-width="2"/>
        </g>
      </g>
    </g>
  </g>
</svg>
