<svg xmlns="http://www.w3.org/2000/svg" width="17.215" height="17.341" viewBox="0 0 17.215 17.341">
  <g id="الخيارات-08" transform="translate(0.015 0.041)">
    <g id="Group_103" data-name="Group 103">
      <g id="Group_101" data-name="Group 101">
        <path id="Path_109" data-name="Path 109" d="M3.8,1.8a1.135,1.135,0,0,1,.8.3l.4.4c.4.3.7.5,1.2.3a.963.963,0,0,0,.7-1V1.2A2.544,2.544,0,0,1,7.1.5C7.4,0,8.7-.2,9.6.1c.6.2.8.6.8,1.4v.6a1.039,1.039,0,0,0,1.7.6l.1-.1c.4-.4.8-.9,1.5-.7a3.319,3.319,0,0,1,1.7,1.6c.3.4.1.9-.3,1.3s-.9.8-.6,1.5.9.7,1.5.7a1.131,1.131,0,0,1,1.2,1.1V9.4c-.1.7-.4,1.1-1.2,1.1-.6,0-1.2,0-1.5.6-.3.7.2,1.1.6,1.5a1.15,1.15,0,0,1,0,1.7l-.9.9a1.041,1.041,0,0,1-1.6,0c-.2-.1-.3-.3-.5-.4a1.025,1.025,0,0,0-1.7.7v.6a1.061,1.061,0,0,1-1.2,1.2H8.1a1.131,1.131,0,0,1-1.2-1.1v-.7a1.025,1.025,0,0,0-1.7-.7l-.1.1c-.4.4-.8.9-1.5.7A3.319,3.319,0,0,1,1.9,14a.913.913,0,0,1,.2-1.1,2.651,2.651,0,0,0,.5-.6,1.07,1.07,0,0,0-.7-1.7H1.7c-.6,0-1.2.1-1.6-.5a6.976,6.976,0,0,1,0-2.5A.856.856,0,0,1,1,6.9h.6a1.081,1.081,0,0,0,1.1-.7c.3-.5.1-.8-.2-1.2-.2-.1-.3-.3-.5-.5A.91.91,0,0,1,2,3.3,5.347,5.347,0,0,1,3.3,2C3.5,1.9,3.7,1.9,3.8,1.8Zm8.8,6.8a4.078,4.078,0,0,0-4-4,4.034,4.034,0,0,0-4,4.1,3.923,3.923,0,0,0,4,3.9A3.947,3.947,0,0,0,12.6,8.6Z" fill="#c09b65"/>
      </g>
      <g id="Group_102" data-name="Group 102">
        <path id="Path_110" data-name="Path 110" d="M3.8,1.8a1.135,1.135,0,0,1,.8.3l.4.4c.4.3.7.5,1.2.3a.963.963,0,0,0,.7-1V1.2A2.544,2.544,0,0,1,7.1.5C7.4,0,8.7-.2,9.6.1c.6.2.8.6.8,1.4v.6a1.039,1.039,0,0,0,1.7.6l.1-.1c.4-.4.8-.9,1.5-.7a3.319,3.319,0,0,1,1.7,1.6c.3.4.1.9-.3,1.3s-.9.8-.6,1.5.9.7,1.5.7a1.131,1.131,0,0,1,1.2,1.1V9.4c-.1.7-.4,1.1-1.2,1.1-.6,0-1.2,0-1.5.6-.3.7.2,1.1.6,1.5a1.15,1.15,0,0,1,0,1.7l-.9.9a1.041,1.041,0,0,1-1.6,0c-.2-.1-.3-.3-.5-.4a1.025,1.025,0,0,0-1.7.7v.6a1.061,1.061,0,0,1-1.2,1.2H8.1a1.131,1.131,0,0,1-1.2-1.1v-.7a1.025,1.025,0,0,0-1.7-.7l-.1.1c-.4.4-.8.9-1.5.7A3.319,3.319,0,0,1,1.9,14a.913.913,0,0,1,.2-1.1,2.651,2.651,0,0,0,.5-.6,1.07,1.07,0,0,0-.7-1.7H1.7c-.6,0-1.2.1-1.6-.5a6.976,6.976,0,0,1,0-2.5A.856.856,0,0,1,1,6.9h.6a1.081,1.081,0,0,0,1.1-.7c.3-.5.1-.8-.2-1.2-.2-.1-.3-.3-.5-.5A.91.91,0,0,1,2,3.3,5.347,5.347,0,0,1,3.3,2C3.5,1.9,3.7,1.9,3.8,1.8Zm8.8,6.8a4.078,4.078,0,0,0-4-4,4.034,4.034,0,0,0-4,4.1,3.923,3.923,0,0,0,4,3.9A3.947,3.947,0,0,0,12.6,8.6Z" fill="#cba46c"/>
      </g>
    </g>
  </g>
</svg>
