<svg xmlns="http://www.w3.org/2000/svg" width="16" height="19.5" viewBox="0 0 16 19.5">
  <path id="استعراض_الحكم_2" data-name="استعراض الحكم 2" d="M16,16.7a2.862,2.862,0,0,1-2.8,2.8,2.818,2.818,0,0,1-2.9-2.8,1.7,1.7,0,0,1,.1-.7l.1-.4L5,11.6l-.4.3a2.716,2.716,0,0,1-1.7.6A2.818,2.818,0,0,1,0,9.7,2.738,2.738,0,0,1,2.9,7a2.716,2.716,0,0,1,1.7.6l.4.2,5.5-3.9-.1-.4a1.7,1.7,0,0,1-.1-.7A2.883,2.883,0,0,1,13.2,0,2.8,2.8,0,0,1,16,2.8a2.862,2.862,0,0,1-2.8,2.8,2.822,2.822,0,0,1-1.5-.4L11.3,5,5.6,9l.1.4v.8l-.1.4,5.7,4,.4-.2a2.41,2.41,0,0,1,1.5-.4A2.711,2.711,0,0,1,16,16.7Z" fill="#6e5835" fill-rule="evenodd"/>
</svg>
