<svg xmlns="http://www.w3.org/2000/svg" width="24.021" height="24.02" viewBox="0 0 24.021 24.02">
  <g id="سوق_التجاري" data-name="سوق التجاري" transform="translate(0)">
    <path id="Path_219" data-name="Path 219" d="M12,0a12.21,12.21,0,0,1,2.34.23A12,12,0,0,1,18.67,2a13,13,0,0,1,1.82,1.49A13,13,0,0,1,22,5.33a12.022,12.022,0,0,1,0,13.34,13,13,0,0,1-1.49,1.82A13,13,0,0,1,18.67,22,12.022,12.022,0,0,1,5.33,22a13,13,0,0,1-1.82-1.49A13,13,0,0,1,2,18.67,12.133,12.133,0,0,1,2,5.33,12.756,12.756,0,0,1,5.33,2,12,12,0,0,1,9.66.23,12.21,12.21,0,0,1,12,0Z" fill="#6e5835"/>
    <path id="Path_220" data-name="Path 220" d="M18.32,17.45H12.71l-.63-3.11h7Zm1.95-6.22a.39.39,0,0,0-.47.29l-.51,2H11.61a.37.37,0,0,0-.3.14.35.35,0,0,0-.08.32l.78,3.9a.38.38,0,0,0,.38.31h6.23A.39.39,0,0,0,19,17.9l1.56-6.24a.4.4,0,0,0-.29-.43Z" fill="#fff"/>
    <path id="Path_221" data-name="Path 221" d="M14.18,19a.77.77,0,0,1,.92.61.79.79,0,0,1-.11.58.75.75,0,0,1-.5.33.71.71,0,0,1-.58-.11.78.78,0,0,1-.34-.49.76.76,0,0,1,.12-.59A.73.73,0,0,1,14.18,19Z" fill="#fff"/>
    <path id="Path_222" data-name="Path 222" d="M16.81,19.34a.782.782,0,0,1,1.28.9.77.77,0,0,1-.5.32.8.8,0,0,1-.91-.63.81.81,0,0,1,.13-.59Z" fill="#fff"/>
    <path id="Path_223" data-name="Path 223" d="M16.63,9.66,16,4.21h2.76a.39.39,0,0,1,.39.34l.64,5.11Zm-12,0H4.26L4.9,4.55a.39.39,0,0,1,.39-.34H8.05L7.37,9.66Zm7.79-5.45h2.77l.68,5.45H12.39Zm-.78,0V9.66H8.16l.68-5.45ZM21,9.66h-.44l-.65-5.21a1.17,1.17,0,0,0-1.16-1H5.29a1.17,1.17,0,0,0-1.16,1L3.48,9.66H3a.4.4,0,0,0-.39.39.39.39,0,0,0,.39.39H4.21v8.18a2,2,0,0,0,2,1.95H10.1a.39.39,0,0,0,.39-.39.38.38,0,0,0-.39-.39H6.16A1.17,1.17,0,0,1,5,18.62V10.44H21a.39.39,0,0,0,.39-.39A.4.4,0,0,0,21,9.66Z" fill="#fff"/>
    <path id="Path_224" data-name="Path 224" d="M7.71,13.56h2.34a.39.39,0,0,0,.39-.39.38.38,0,0,0-.39-.39H7.71A1.16,1.16,0,0,0,6.55,14v2.33A1.16,1.16,0,0,0,7.71,17.5H9.27a.38.38,0,0,0,.39-.39.39.39,0,0,0-.39-.39H7.71a.38.38,0,0,1-.38-.39V14a.38.38,0,0,1,.38-.44Z" fill="#fff"/>
  </g>
</svg>
