<svg id="التحميلات_5" data-name="التحميلات 5" xmlns="http://www.w3.org/2000/svg" width="16.8" height="16.8" viewBox="0 0 16.8 16.8">
  <path id="Path_33" data-name="Path 33" d="M8.4,0A8.752,8.752,0,0,1,10,.2a9.83,9.83,0,0,1,1.6.5,6.376,6.376,0,0,1,1.4.8,14.7,14.7,0,0,1,1.3,1,6.42,6.42,0,0,1,1,1.3,9.993,9.993,0,0,1,.8,1.4,7.494,7.494,0,0,1,.5,1.6,9.971,9.971,0,0,1,.2,1.6,8.752,8.752,0,0,1-.2,1.6,9.829,9.829,0,0,1-.5,1.6,6.376,6.376,0,0,1-.8,1.4,14.7,14.7,0,0,1-1,1.3,6.42,6.42,0,0,1-1.3,1,9.993,9.993,0,0,1-1.4.8,7.494,7.494,0,0,1-1.6.5,8.752,8.752,0,0,1-1.6.2,8.752,8.752,0,0,1-1.6-.2,9.829,9.829,0,0,1-1.6-.5,6.376,6.376,0,0,1-1.4-.8,14.7,14.7,0,0,1-1.3-1,6.42,6.42,0,0,1-1-1.3,9.993,9.993,0,0,1-.8-1.4A7.494,7.494,0,0,1,.2,10,8.752,8.752,0,0,1,0,8.4,8.752,8.752,0,0,1,.2,6.8,9.83,9.83,0,0,1,.7,5.2a6.376,6.376,0,0,1,.8-1.4,14.7,14.7,0,0,1,1-1.3,6.42,6.42,0,0,1,1.3-1A9.993,9.993,0,0,1,5.2.7,7.494,7.494,0,0,1,6.8.2,7.772,7.772,0,0,1,8.4,0Z" fill="#6e5835"/>
  <g id="Group_38" data-name="Group 38">
    <g id="Group_36" data-name="Group 36">
      <path id="Path_34" data-name="Path 34" d="M11.8,5.1a.3.3,0,0,0,0,.4A4.454,4.454,0,0,1,13,8.4a3.784,3.784,0,0,1-1.2,2.8.28.28,0,0,0,.2.5c.1,0,.2,0,.2-.1a4.377,4.377,0,0,0,1.3-3.2,4.626,4.626,0,0,0-1.3-3.2.247.247,0,0,0-.4-.1Z" fill="#6e5835"/>
      <path id="Path_35" data-name="Path 35" d="M10.9,10.3a.283.283,0,0,0,.4.4,3.492,3.492,0,0,0,1-2.4A3.168,3.168,0,0,0,11.4,6a.283.283,0,1,0-.4.4,2.732,2.732,0,0,1,.8,1.9A2.665,2.665,0,0,1,10.9,10.3Z" fill="#6e5835"/>
      <path id="Path_36" data-name="Path 36" d="M10.1,9.9a.3.3,0,0,0,.4,0,2.035,2.035,0,0,0,.6-1.5,2.035,2.035,0,0,0-.6-1.5.283.283,0,0,0-.4.4,1.5,1.5,0,0,1,.4,1.1,2.1,2.1,0,0,1-.4,1.1A.3.3,0,0,0,10.1,9.9Z" fill="#6e5835"/>
      <path id="Path_37" data-name="Path 37" d="M3.5,6.1H4.7v4.4H3.5a.265.265,0,0,1-.3-.3V6.4A.319.319,0,0,1,3.5,6.1Z" fill="#6e5835"/>
      <path id="Path_38" data-name="Path 38" d="M9.3,4.8V12a.626.626,0,0,1-.9.5L5.2,10.7V6L8.4,4.2C8.9,4.1,9.3,4.3,9.3,4.8Z" fill="#6e5835"/>
    </g>
    <g id="Group_37" data-name="Group 37">
      <path id="Path_39" data-name="Path 39" d="M11.8,5.1a.3.3,0,0,0,0,.4A4.454,4.454,0,0,1,13,8.4a3.784,3.784,0,0,1-1.2,2.8.28.28,0,0,0,.2.5c.1,0,.2,0,.2-.1a4.377,4.377,0,0,0,1.3-3.2,4.626,4.626,0,0,0-1.3-3.2.247.247,0,0,0-.4-.1Z" fill="#fff"/>
      <path id="Path_40" data-name="Path 40" d="M10.9,10.3a.283.283,0,0,0,.4.4,3.492,3.492,0,0,0,1-2.4A3.168,3.168,0,0,0,11.4,6a.283.283,0,1,0-.4.4,2.732,2.732,0,0,1,.8,1.9A2.665,2.665,0,0,1,10.9,10.3Z" fill="#fff"/>
      <path id="Path_41" data-name="Path 41" d="M10.1,9.9a.3.3,0,0,0,.4,0,2.035,2.035,0,0,0,.6-1.5,2.035,2.035,0,0,0-.6-1.5.283.283,0,0,0-.4.4,1.5,1.5,0,0,1,.4,1.1,2.1,2.1,0,0,1-.4,1.1A.3.3,0,0,0,10.1,9.9Z" fill="#fff"/>
      <path id="Path_42" data-name="Path 42" d="M3.5,6.1H4.7v4.4H3.5a.265.265,0,0,1-.3-.3V6.4A.319.319,0,0,1,3.5,6.1Z" fill="#fff"/>
      <path id="Path_43" data-name="Path 43" d="M9.3,4.8V12a.626.626,0,0,1-.9.5L5.2,10.7V6L8.4,4.2C8.9,4.1,9.3,4.3,9.3,4.8Z" fill="#fff"/>
    </g>
  </g>
</svg>
