<svg id="تابعنا_على-05" data-name="تابعنا على-05" xmlns="http://www.w3.org/2000/svg" width="27.56" height="27.56" viewBox="0 0 27.56 27.56">
  <path id="Path_316" data-name="Path 316" d="M22.93,5,3.73,12.49a.7.7,0,0,0,0,1.32l4.88,1.44L10.48,21a.84.84,0,0,0,1.4.34l2.52-2.58,5,3.63A1,1,0,0,0,21,21.8L24.26,6.13A1,1,0,0,0,22.93,5ZM20.52,8.48,11.6,16.37a.52.52,0,0,0-.16.31l-.34,3.05a.09.09,0,0,1-.18,0L9.51,15.19a.48.48,0,0,1,.2-.55L20.25,8.11a.23.23,0,0,1,.27.37Zm0,0" fill="#77590e" fill-rule="evenodd"/>
  <rect id="Rectangle_10" data-name="Rectangle 10" width="26.56" height="26.56" rx="3.44" transform="translate(0.5 0.5)" fill="none" stroke="#c69c52" stroke-miterlimit="10" stroke-width="1"/>
</svg>
