<svg id="تابعنا_على-08" data-name="تابعنا على-08" xmlns="http://www.w3.org/2000/svg" width="27.5" height="27.5" viewBox="0 0 27.5 27.5">
  <path id="Path_319" data-name="Path 319" d="M3.9.5H23.6A3.372,3.372,0,0,1,27,3.9V23.6A3.372,3.372,0,0,1,23.6,27H3.9A3.372,3.372,0,0,1,.5,23.6V3.9A3.372,3.372,0,0,1,3.9.5Z" fill="none" stroke="#c69c52" stroke-miterlimit="10" stroke-width="1"/>
  <g id="Group_171" data-name="Group 171">
    <g id="Group_170" data-name="Group 170">
      <path id="Path_320" data-name="Path 320" d="M4.3,20.2a9.081,9.081,0,0,0,4.3-.7,9.5,9.5,0,0,0,1.7-1A3.743,3.743,0,0,1,8.5,18a4.3,4.3,0,0,1-2-2.2c-.1-.2-.1-.2.2-.2a3.549,3.549,0,0,0,1.5-.1,3,3,0,0,1-1-.4A4.018,4.018,0,0,1,5,11.6c0-.2,0-.2.2-.1a2.934,2.934,0,0,0,1.6.4,4.349,4.349,0,0,1-.7-.6,4.3,4.3,0,0,1-.6-4.7c.1-.2.1-.2.3,0a11.838,11.838,0,0,0,7.2,4c.3,0,.6.1.9.1.2,0,.2-.1.2-.2a4.093,4.093,0,0,1,2.1-4.3,4.228,4.228,0,0,1,4.9.6c.1.1.3.2.4.1A8.488,8.488,0,0,0,23.7,6a.31.31,0,0,0,.2-.1,4.381,4.381,0,0,1-1.7,2.3,7.945,7.945,0,0,0,2.2-.6.349.349,0,0,1-.1.2,9.763,9.763,0,0,1-1.7,1.8c-.1.1-.2.2-.2.3A12.223,12.223,0,0,1,19.5,18a11.462,11.462,0,0,1-6.9,3.9,12.114,12.114,0,0,1-8.3-1.7Z" fill="#6f5835" fill-rule="evenodd"/>
    </g>
  </g>
</svg>
