<svg id="تابعنا_على-01-01" data-name="تابعنا على-01-01" xmlns="http://www.w3.org/2000/svg" width="27.5" height="27.5" viewBox="0 0 27.5 27.5">
  <path id="Path_293" data-name="Path 293" d="M3.9.5H23.6A3.372,3.372,0,0,1,27,3.9V23.6A3.372,3.372,0,0,1,23.6,27H3.9A3.372,3.372,0,0,1,.5,23.6V3.9A3.372,3.372,0,0,1,3.9.5Z" fill="none" stroke="#c69c52" stroke-miterlimit="10" stroke-width="1"/>
  <g id="Group_163" data-name="Group 163">
    <g id="Group_162" data-name="Group 162">
      <path id="Path_294" data-name="Path 294" d="M13.8,19.6a8.266,8.266,0,0,1-6.3-3l-.1-.1a7.754,7.754,0,0,1-1.8-5.1A8.147,8.147,0,0,1,7.4,6.3l.1-.1a8.114,8.114,0,0,1,6.3-3,8.266,8.266,0,0,1,6.3,3l.1.1A7.754,7.754,0,0,1,22,11.4a7.946,7.946,0,0,1-1.8,5.1l-.1.1A8.266,8.266,0,0,1,13.8,19.6Zm0-15.7A7.248,7.248,0,0,0,8,6.7H8a7.539,7.539,0,0,0-1.7,4.7A7.333,7.333,0,0,0,8,16.1H8A7.063,7.063,0,0,0,13.8,19h0a7.248,7.248,0,0,0,5.8-2.8h0a7.347,7.347,0,0,0,0-9.4h0A7.2,7.2,0,0,0,13.8,3.9Z" fill="#77590e"/>
      <path id="Path_295" data-name="Path 295" d="M13.8,18.4h0a.713.713,0,0,1-.6-.3,20.863,20.863,0,0,1-1.9-2.9,10.679,10.679,0,0,1,2.5-.3,11.342,11.342,0,0,1,2.5.3,14.555,14.555,0,0,1-1.9,2.9A.864.864,0,0,1,13.8,18.4Z" fill="#77590e"/>
      <path id="Path_296" data-name="Path 296" d="M13.8,14a9.034,9.034,0,0,0-2.8.4,10.154,10.154,0,0,1-.6-2.5h6.8a10.154,10.154,0,0,1-.6,2.5A9.034,9.034,0,0,0,13.8,14Z" fill="#77590e"/>
      <path id="Path_297" data-name="Path 297" d="M6.8,11.9H9.5a12.662,12.662,0,0,0,.6,2.8,8.818,8.818,0,0,0-2,.9A8.226,8.226,0,0,1,6.8,11.9Z" fill="#77590e"/>
      <path id="Path_298" data-name="Path 298" d="M8.1,7.3a8.818,8.818,0,0,0,2,.9A12.662,12.662,0,0,0,9.5,11H6.8A7.826,7.826,0,0,1,8.1,7.3Z" fill="#77590e"/>
      <path id="Path_299" data-name="Path 299" d="M13.8,4.5h0a.713.713,0,0,1,.6.3,20.863,20.863,0,0,1,1.9,2.9,11.342,11.342,0,0,1-2.5.3,11.342,11.342,0,0,1-2.5-.3,14.555,14.555,0,0,1,1.9-2.9A.6.6,0,0,1,13.8,4.5Z" fill="#77590e"/>
      <path id="Path_300" data-name="Path 300" d="M13.8,8.9a9.034,9.034,0,0,0,2.8-.4,10.154,10.154,0,0,1,.6,2.5H10.4A10.154,10.154,0,0,1,11,8.5,13.505,13.505,0,0,0,13.8,8.9Z" fill="#77590e"/>
      <path id="Path_301" data-name="Path 301" d="M20.8,11H18a12.662,12.662,0,0,0-.6-2.8,8.818,8.818,0,0,0,2-.9A7,7,0,0,1,20.8,11Z" fill="#77590e"/>
      <path id="Path_302" data-name="Path 302" d="M18,11.9h2.7a7.826,7.826,0,0,1-1.3,3.7,8.818,8.818,0,0,0-2-.9A6.71,6.71,0,0,0,18,11.9Z" fill="#77590e"/>
      <path id="Path_303" data-name="Path 303" d="M18.8,6.6c-.6.3-1.2.6-1.7.8a11.4,11.4,0,0,0-1.7-2.7A6.726,6.726,0,0,1,18.8,6.6Z" fill="#77590e"/>
      <path id="Path_304" data-name="Path 304" d="M12.1,4.7a15.861,15.861,0,0,0-1.7,2.7c-.5-.2-1.1-.5-1.7-.8A7.168,7.168,0,0,1,12.1,4.7Z" fill="#77590e"/>
      <path id="Path_305" data-name="Path 305" d="M8.7,16.2c.6-.3,1.2-.6,1.7-.8a11.4,11.4,0,0,0,1.7,2.7A5.827,5.827,0,0,1,8.7,16.2Z" fill="#77590e"/>
      <path id="Path_306" data-name="Path 306" d="M15.4,18.2a15.861,15.861,0,0,0,1.7-2.7,8.865,8.865,0,0,1,1.7.8A6.726,6.726,0,0,1,15.4,18.2Z" fill="#77590e"/>
    </g>
    <path id="Path_307" data-name="Path 307" d="M19.6,24.3H7.9a2.433,2.433,0,0,1-2.4-2.4v-.5A2.433,2.433,0,0,1,7.9,19H19.6A2.433,2.433,0,0,1,22,21.4v.5A2.369,2.369,0,0,1,19.6,24.3ZM7.9,19.6a1.793,1.793,0,0,0-1.8,1.8v.5a1.793,1.793,0,0,0,1.8,1.8H19.6a1.793,1.793,0,0,0,1.8-1.8v-.5a1.793,1.793,0,0,0-1.8-1.8Z" fill="#77590e"/>
  </g>
  <g id="Group_166" data-name="Group 166">
    <g id="Group_164" data-name="Group 164">
      <path id="Path_308" data-name="Path 308" d="M11.7,21v.1h0c0,.1-.1.3-.5,1.5-.1.2-.2.2-.3.2s-.2-.1-.3-.2a3.178,3.178,0,0,0-.3-.9l-.3.9c0,.1-.2.2-.3.2-.2,0-.3-.1-.3-.2-.4-1.3-.5-1.5-.5-1.6a.265.265,0,0,1,.3-.3c.1,0,.2.1.3.2l.3,1,.3-1c0-.1.2-.2.3-.2s.3.1.3.2a3.81,3.81,0,0,0,.3,1l.2-1c0-.1.1-.2.3-.2C11.6,20.7,11.7,20.8,11.7,21Z" fill="#77590e"/>
      <path id="Path_309" data-name="Path 309" d="M15.2,21v.1h0c0,.1-.1.3-.5,1.5-.1.2-.2.2-.3.2s-.2-.1-.3-.2a3.178,3.178,0,0,0-.3-.9l-.3.9c0,.1-.2.2-.3.2-.2,0-.3-.1-.3-.2-.4-1.3-.5-1.5-.5-1.6a.265.265,0,0,1,.3-.3c.1,0,.2.1.3.2l.3,1,.3-1c0-.1.2-.2.3-.2s.3.1.3.2a3.81,3.81,0,0,0,.3,1l.2-1c0-.1.1-.2.3-.2S15.2,20.8,15.2,21Z" fill="#77590e"/>
      <path id="Path_310" data-name="Path 310" d="M18.8,21v.1h0c0,.1-.1.3-.5,1.5-.1.2-.2.2-.3.2s-.2-.1-.3-.2a3.178,3.178,0,0,0-.3-.9l-.3.9c0,.1-.2.2-.3.2-.2,0-.3-.1-.3-.2-.4-1.3-.5-1.5-.5-1.6a.265.265,0,0,1,.3-.3c.1,0,.2.1.3.2l.3,1,.3-1c0-.1.2-.2.3-.2s.3.1.3.2a3.81,3.81,0,0,0,.3,1l.2-1c0-.1.1-.2.3-.2C18.7,20.7,18.8,20.8,18.8,21Z" fill="#77590e"/>
    </g>
    <g id="Group_165" data-name="Group 165">
      <path id="Path_311" data-name="Path 311" d="M11.7,21v.1h0c0,.1-.1.3-.5,1.5-.1.2-.2.2-.3.2s-.2-.1-.3-.2a3.178,3.178,0,0,0-.3-.9l-.3.9c0,.1-.2.2-.3.2-.2,0-.3-.1-.3-.2-.4-1.3-.5-1.5-.5-1.6a.265.265,0,0,1,.3-.3c.1,0,.2.1.3.2l.3,1,.3-1c0-.1.2-.2.3-.2s.3.1.3.2a3.81,3.81,0,0,0,.3,1l.2-1c0-.1.1-.2.3-.2C11.6,20.7,11.7,20.8,11.7,21Z" fill="#77590e"/>
      <path id="Path_312" data-name="Path 312" d="M15.2,21v.1h0c0,.1-.1.3-.5,1.5-.1.2-.2.2-.3.2s-.2-.1-.3-.2a3.178,3.178,0,0,0-.3-.9l-.3.9c0,.1-.2.2-.3.2-.2,0-.3-.1-.3-.2-.4-1.3-.5-1.5-.5-1.6a.265.265,0,0,1,.3-.3c.1,0,.2.1.3.2l.3,1,.3-1c0-.1.2-.2.3-.2s.3.1.3.2a3.81,3.81,0,0,0,.3,1l.2-1c0-.1.1-.2.3-.2S15.2,20.8,15.2,21Z" fill="#77590e"/>
      <path id="Path_313" data-name="Path 313" d="M18.8,21v.1h0c0,.1-.1.3-.5,1.5-.1.2-.2.2-.3.2s-.2-.1-.3-.2a3.178,3.178,0,0,0-.3-.9l-.3.9c0,.1-.2.2-.3.2-.2,0-.3-.1-.3-.2-.4-1.3-.5-1.5-.5-1.6a.265.265,0,0,1,.3-.3c.1,0,.2.1.3.2l.3,1,.3-1c0-.1.2-.2.3-.2s.3.1.3.2a3.81,3.81,0,0,0,.3,1l.2-1c0-.1.1-.2.3-.2C18.7,20.7,18.8,20.8,18.8,21Z" fill="#77590e"/>
    </g>
  </g>
</svg>
