<svg id="تابعنا_على-06" data-name="تابعنا على-06" xmlns="http://www.w3.org/2000/svg" width="27.56" height="27.56" viewBox="0 0 27.56 27.56">
  <rect id="Rectangle_11" data-name="Rectangle 11" width="26.56" height="26.56" rx="3.44" transform="translate(0.5 0.5)" fill="none" stroke="#c69c52" stroke-miterlimit="10" stroke-width="1"/>
  <path id="Path_317" data-name="Path 317" d="M22.12,11.57a3.63,3.63,0,0,0-3.63-3.63H9.07a3.63,3.63,0,0,0-3.63,3.63V16a3.63,3.63,0,0,0,3.63,3.63h9.42A3.63,3.63,0,0,0,22.12,16ZM16.18,14l-3.76,2.06c-.16.09-.31,0-.31-.21V11.62c0-.19.15-.31.32-.22l3.78,2.17a.25.25,0,0,1-.03.43Z" fill="#77590e" fill-rule="evenodd"/>
</svg>
