<svg xmlns="http://www.w3.org/2000/svg" width="19.171" height="19.173" viewBox="0 0 19.171 19.173">
  <g id="الدرس_-04" data-name="الدرس -04" transform="translate(0 0.002)">
    <path id="Path_135" data-name="Path 135" d="M7.25,14.5a7.51,7.51,0,0,1-1.42-.14A7,7,0,0,1,4.48,14a7.61,7.61,0,0,1-1.26-.67,7.86,7.86,0,0,1-1.1-.9,8.64,8.64,0,0,1-.9-1.1A7.61,7.61,0,0,1,.55,10,7.11,7.11,0,0,1,.14,8.66,7.41,7.41,0,0,1,0,7.25,7.51,7.51,0,0,1,.14,5.83,7,7,0,0,1,.55,4.48a7.61,7.61,0,0,1,.67-1.26,7.86,7.86,0,0,1,.9-1.1,7.86,7.86,0,0,1,1.1-.9A7.61,7.61,0,0,1,4.48.55,6.9,6.9,0,0,1,5.84.14a7.1,7.1,0,0,1,2.83,0A7,7,0,0,1,10,.55a7.61,7.61,0,0,1,1.26.67,8.64,8.64,0,0,1,1.1.9,7.86,7.86,0,0,1,.9,1.1A7.93,7.93,0,0,1,14,4.47a7.21,7.21,0,0,1,.41,1.37,7.33,7.33,0,0,1,.14,1.41,7.41,7.41,0,0,1-.14,1.41A7.11,7.11,0,0,1,14,10a7.61,7.61,0,0,1-.67,1.26,8.64,8.64,0,0,1-.9,1.1,8.64,8.64,0,0,1-1.1.9A7.61,7.61,0,0,1,10,14a6.9,6.9,0,0,1-1.36.41,7.33,7.33,0,0,1-1.39.09Zm0-13a6,6,0,0,0-1.12.11,5.18,5.18,0,0,0-1.08.33,5.64,5.64,0,0,0-1,.53,6.58,6.58,0,0,0-.87.71,6.07,6.07,0,0,0-.71.88,5.23,5.23,0,0,0-.53,1,5.18,5.18,0,0,0-.33,1.08,5.76,5.76,0,0,0,0,2.24,5.18,5.18,0,0,0,.33,1.08,5.23,5.23,0,0,0,.53,1,6.07,6.07,0,0,0,.71.88,6.58,6.58,0,0,0,.87.71,5.64,5.64,0,0,0,1,.53,5.18,5.18,0,0,0,1.08.33,5.63,5.63,0,0,0,2.24,0,5.18,5.18,0,0,0,1.08-.33,5.23,5.23,0,0,0,1-.53,6.07,6.07,0,0,0,.88-.71,6.07,6.07,0,0,0,.71-.88,5.23,5.23,0,0,0,.53-1,5.18,5.18,0,0,0,.33-1.08,5.76,5.76,0,0,0,0-2.24,5.18,5.18,0,0,0-.33-1.08,5.23,5.23,0,0,0-.53-1,6.07,6.07,0,0,0-.71-.88,6.07,6.07,0,0,0-.88-.71,5.23,5.23,0,0,0-1-.53,5.18,5.18,0,0,0-1.08-.33A6,6,0,0,0,7.25,1.5Z" fill="#6e5835"/>
    <line id="Line_18" data-name="Line 18" x2="5.86" y2="5.86" transform="translate(12.25 12.25)" fill="none" stroke="#6e5835" stroke-linecap="round" stroke-width="1.5"/>
    <path id="Path_136" data-name="Path 136" d="M7.19,7.49H5.57V7.31H9v.18Z" fill="none" stroke="#6e5835" stroke-linecap="round" stroke-linejoin="round" stroke-width="1"/>
  </g>
</svg>
