<svg xmlns="http://www.w3.org/2000/svg" width="19.169" height="19.171" viewBox="0 0 19.169 19.171">
  <g id="الدرس_-05" data-name="الدرس -05" transform="translate(-0.001)">
    <path id="Path_137" data-name="Path 137" d="M7.25.75A6.75,6.75,0,0,1,8.52.87a7.46,7.46,0,0,1,1.22.37,6.74,6.74,0,0,1,1.12.61,6,6,0,0,1,1.79,1.79,6.74,6.74,0,0,1,.61,1.12A7.46,7.46,0,0,1,13.63,6a6.78,6.78,0,0,1,0,2.54,7.46,7.46,0,0,1-.37,1.22,6.74,6.74,0,0,1-.61,1.12,6,6,0,0,1-1.79,1.79,6.74,6.74,0,0,1-1.12.61,7.46,7.46,0,0,1-1.22.37,6.78,6.78,0,0,1-2.54,0,7.46,7.46,0,0,1-1.22-.37,6.74,6.74,0,0,1-1.12-.61,6,6,0,0,1-1.79-1.79,6.74,6.74,0,0,1-.61-1.12A7.46,7.46,0,0,1,.87,8.52,6.78,6.78,0,0,1,.87,6a7.46,7.46,0,0,1,.37-1.22,6.74,6.74,0,0,1,.61-1.12A6,6,0,0,1,3.64,1.85a6.74,6.74,0,0,1,1.12-.61A7.46,7.46,0,0,1,6,.87,6.75,6.75,0,0,1,7.25.75Z" fill="none" stroke="#6e5835" stroke-width="1.5"/>
    <line id="Line_19" data-name="Line 19" x2="5.86" y2="5.86" transform="translate(12.25 12.25)" fill="none" stroke="#6e5835" stroke-linecap="round" stroke-width="1.5"/>
    <path id="Path_138" data-name="Path 138" d="M7.19,7.49H5.57V7.31H7.19V5.58h.22V7.31H9v.18H7.41V9.21H7.19Z" fill="none" stroke="#6e5835" stroke-linecap="round" stroke-linejoin="round" stroke-width="1"/>
  </g>
</svg>
